<?xml version="1.0" encoding="UTF-8" standalone="no"?>
<!-- Created with Inkscape (http://www.inkscape.org/) -->

<svg
   xmlns:dc="http://purl.org/dc/elements/1.1/"
   xmlns:cc="http://creativecommons.org/ns#"
   xmlns:rdf="http://www.w3.org/1999/02/22-rdf-syntax-ns#"
   xmlns:svg="http://www.w3.org/2000/svg"
   xmlns="http://www.w3.org/2000/svg"
   xmlns:sodipodi="http://sodipodi.sourceforge.net/DTD/sodipodi-0.dtd"
   xmlns:inkscape="http://www.inkscape.org/namespaces/inkscape"
   width="100"
   height="100"
   id="svg2"
   version="1.1"
   inkscape:version="0.48.2 r9819"
   inkscape:export-filename="C:\Users\Lutyens\Desktop\ObjData\BoxSphere\Stage\obj_base.png"
   inkscape:export-xdpi="460.79999"
   inkscape:export-ydpi="460.79999"
   sodipodi:docname="objTex2.svg">
  <defs
     id="defs4" />
  <sodipodi:namedview
     id="base"
     pagecolor="#ffffff"
     bordercolor="#666666"
     borderopacity="1.0"
     inkscape:pageopacity="0.0"
     inkscape:pageshadow="2"
     inkscape:zoom="8.59"
     inkscape:cx="50"
     inkscape:cy="50"
     inkscape:document-units="px"
     inkscape:current-layer="layer1"
     showgrid="false"
     inkscape:window-width="1679"
     inkscape:window-height="1058"
     inkscape:window-x="83"
     inkscape:window-y="-8"
     inkscape:window-maximized="1" />
  <metadata
     id="metadata7">
    <rdf:RDF>
      <cc:Work
         rdf:about="">
        <dc:format>image/svg+xml</dc:format>
        <dc:type
           rdf:resource="http://purl.org/dc/dcmitype/StillImage" />
        <dc:title></dc:title>
      </cc:Work>
    </rdf:RDF>
  </metadata>
  <g
     inkscape:label="レイヤー 1"
     inkscape:groupmode="layer"
     id="layer1"
     transform="translate(0,-952.36218)"
     style="display:none">
    <rect
       style="fill:#282880;fill-opacity:1;fill-rule:evenodd;stroke:none"
       id="rect3753"
       width="100"
       height="100"
       x="0"
       y="952.36218" />
  </g>
  <g
     inkscape:groupmode="layer"
     id="layer5"
     inkscape:label="レイヤー"
     style="display:inline">
    <path
       style="fill:#282880;fill-opacity:1;stroke:none"
       d="M 20,70 13.46875,72.78125 17.6875,77 c 0.640495,-0.491571 1.442713,-0.78125 2.3125,-0.78125 0.869788,0 1.672006,0.289679 2.3125,0.78125 L 26.53125,72.78125 20,70 z M 12.78125,73.46875 10,80 3.46875,82.78125 7.6875,87 C 8.3279943,86.508429 9.1302123,86.21875 10,86.21875 c 0.869788,0 1.672006,0.289679 2.3125,0.78125 l 0.46875,-0.46875 3.75,-3.75 0.5,-0.5 c -0.494965,-0.645782 -0.8125,-1.44558 -0.8125,-2.3125 0,-0.858393 0.326303,-1.61995 0.8125,-2.25 l -4.25,-4.25 z m 14.4375,0 -4.25,4.25 c 0.486198,0.63005 0.8125,1.391607 0.8125,2.25 0,0.86692 -0.317534,1.666718 -0.8125,2.3125 l 4.25,4.25 L 30,80 27.21875,73.46875 z M 20,77.21875 c -1.540169,0 -2.78125,1.20983 -2.78125,2.75 0,1.54017 1.241081,2.8125 2.78125,2.8125 1.54017,0 2.8125,-1.27233 2.8125,-2.8125 0,-1.54017 -1.27233,-2.75 -2.8125,-2.75 z m -2.28125,5.75 -0.5,0.5 -3.75,3.75 -0.5,0.5 c 0.486198,0.63005 0.8125,1.391607 0.8125,2.25 0,0.86692 -0.317534,1.666718 -0.8125,2.3125 l 4.25,4.25 L 20,90 l 6.53125,-2.78125 -4.25,-4.25 c -0.637341,0.495338 -1.420064,0.8125 -2.28125,0.8125 -0.861186,0 -1.643909,-0.317162 -2.28125,-0.8125 z m -14.9375,0.5 L 0,90 l 2.78125,6.53125 4.25,-4.25 c -0.4949655,-0.645782 -0.8125,-1.44558 -0.8125,-2.3125 0,-0.858393 0.3263023,-1.61995 0.8125,-2.25 l -4.25,-4.25 z M 10,87.21875 c -1.540169,0 -2.78125,1.20983 -2.78125,2.75 0,1.54017 1.241081,2.8125 2.78125,2.8125 1.54017,0 2.8125,-1.27233 2.8125,-2.8125 0,-1.54017 -1.27233,-2.75 -2.8125,-2.75 z m -2.28125,5.75 -4.25,4.25 L 10,100 l 6.53125,-2.78125 -4.25,-4.25 c -0.637341,0.495338 -1.420064,0.8125 -2.28125,0.8125 -0.861186,0 -1.6439093,-0.317162 -2.28125,-0.8125 z"
       id="path4379"
       inkscape:connector-curvature="0" />
    <path
       inkscape:connector-curvature="0"
       style="fill:#282880;fill-opacity:1;stroke:none"
       d="M 10,-1.5e-7 3.46875,2.7812498 7.6875,6.9999998 c 0.640495,-0.491571 1.442713,-0.78125 2.3125,-0.78125 0.869788,0 1.672006,0.289679 2.3125,0.78125 L 16.53125,2.7812498 10,-1.5e-7 z M 2.78125,3.4687498 0,9.9999998 2.78125,16.53125 l 4.25,-4.25 c -0.494965,-0.645782 -0.8125,-1.44558 -0.8125,-2.3125002 0,-0.858393 0.326303,-1.61995 0.8125,-2.25 l -4.25,-4.25 z m 14.4375,0 -4.25,4.25 c 0.486198,0.63005 0.8125,1.391607 0.8125,2.25 0,0.8669202 -0.317534,1.6667182 -0.8125,2.3125002 l 4.25,4.25 L 20,9.9999998 17.21875,3.4687498 z M 10,7.2187498 c -1.540169,0 -2.78125,1.20983 -2.78125,2.75 0,1.5401702 1.241081,2.8125002 2.78125,2.8125002 1.54017,0 2.8125,-1.27233 2.8125,-2.8125002 0,-1.54017 -1.27233,-2.75 -2.8125,-2.75 z m -2.28125,5.7500002 -4.25,4.25 L 10,20 l 6.53125,-2.78125 -4.25,-4.25 c -0.637341,0.495338 -1.420064,0.8125 -2.28125,0.8125 -0.861186,0 -1.643909,-0.317162 -2.28125,-0.8125 z"
       id="path3761" />
    <path
       id="path3764"
       d="M 20,50 13.46875,52.78125 17.6875,57 c 0.640495,-0.49157 1.442713,-0.78125 2.3125,-0.78125 0.869788,0 1.672006,0.28968 2.3125,0.78125 L 26.53125,52.78125 20,50 z M 12.78125,53.46875 10,60 3.46875,62.78125 7.6875,67 C 8.3279943,66.50843 9.1302123,66.21875 10,66.21875 c 0.869788,0 1.672006,0.28968 2.3125,0.78125 l 0.46875,-0.46875 3.75,-3.75 0.5,-0.5 c -0.494965,-0.64578 -0.8125,-1.44558 -0.8125,-2.3125 0,-0.85839 0.326303,-1.61995 0.8125,-2.25 l -4.25,-4.25 z m 14.4375,0 -4.25,4.25 c 0.486198,0.63005 0.8125,1.39161 0.8125,2.25 0,0.86692 -0.317534,1.66672 -0.8125,2.3125 l 4.25,4.25 L 30,60 27.21875,53.46875 z M 20,57.21875 c -1.540169,0 -2.78125,1.20983 -2.78125,2.75 0,1.54017 1.241081,2.8125 2.78125,2.8125 1.54017,0 2.8125,-1.27233 2.8125,-2.8125 0,-1.54017 -1.27233,-2.75 -2.8125,-2.75 z m -2.28125,5.75 -0.5,0.5 -3.75,3.75 -0.5,0.5 c 0.486198,0.63005 0.8125,1.39161 0.8125,2.25 0,0.86692 -0.317534,1.66672 -0.8125,2.3125 l 4.25,4.25 L 20,70 l 6.53125,-2.78125 -4.25,-4.25 c -0.637341,0.49534 -1.420064,0.8125 -2.28125,0.8125 -0.861186,0 -1.643909,-0.31716 -2.28125,-0.8125 z m -14.9375,0.5 L 0,70 l 2.78125,6.53125 4.25,-4.25 c -0.4949655,-0.64578 -0.8125,-1.44558 -0.8125,-2.3125 0,-0.85839 0.3263023,-1.61995 0.8125,-2.25 l -4.25,-4.25 z M 10,67.21875 c -1.540169,0 -2.78125,1.20983 -2.78125,2.75 0,1.54017 1.241081,2.8125 2.78125,2.8125 1.54017,0 2.8125,-1.27233 2.8125,-2.8125 0,-1.54017 -1.27233,-2.75 -2.8125,-2.75 z m -2.28125,5.75 -4.25,4.25 L 10,80 l 6.53125,-2.78125 -4.25,-4.25 c -0.637341,0.49534 -1.420064,0.8125 -2.28125,0.8125 -0.861186,0 -1.6439093,-0.31716 -2.28125,-0.8125 z"
       style="fill:#282880;fill-opacity:1;stroke:none"
       inkscape:connector-curvature="0" />
    <path
       inkscape:connector-curvature="0"
       style="fill:#282880;fill-opacity:1;stroke:none"
       d="M 20,30 13.46875,32.78125 17.6875,37 c 0.640495,-0.49157 1.442713,-0.78125 2.3125,-0.78125 0.869788,0 1.672006,0.28968 2.3125,0.78125 L 26.53125,32.78125 20,30 z M 12.78125,33.46875 10,40 3.46875,42.78125 7.6875,47 C 8.3279943,46.50843 9.1302123,46.21875 10,46.21875 c 0.869788,0 1.672006,0.28968 2.3125,0.78125 l 0.46875,-0.46875 3.75,-3.75 0.5,-0.5 c -0.494965,-0.64578 -0.8125,-1.44558 -0.8125,-2.3125 0,-0.85839 0.326303,-1.61995 0.8125,-2.25 l -4.25,-4.25 z m 14.4375,0 -4.25,4.25 c 0.486198,0.63005 0.8125,1.39161 0.8125,2.25 0,0.86692 -0.317534,1.66672 -0.8125,2.3125 l 4.25,4.25 L 30,40 27.21875,33.46875 z M 20,37.21875 c -1.540169,0 -2.78125,1.20983 -2.78125,2.75 0,1.54017 1.241081,2.8125 2.78125,2.8125 1.54017,0 2.8125,-1.27233 2.8125,-2.8125 0,-1.54017 -1.27233,-2.75 -2.8125,-2.75 z m -2.28125,5.75 -0.5,0.5 -3.75,3.75 -0.5,0.5 c 0.486198,0.63005 0.8125,1.39161 0.8125,2.25 0,0.86692 -0.317534,1.66672 -0.8125,2.3125 l 4.25,4.25 L 20,50 l 6.53125,-2.78125 -4.25,-4.25 c -0.637341,0.49534 -1.420064,0.8125 -2.28125,0.8125 -0.861186,0 -1.643909,-0.31716 -2.28125,-0.8125 z m -14.9375,0.5 L 0,50 l 2.78125,6.53125 4.25,-4.25 c -0.4949655,-0.64578 -0.8125,-1.44558 -0.8125,-2.3125 0,-0.85839 0.3263023,-1.61995 0.8125,-2.25 l -4.25,-4.25 z M 10,47.21875 c -1.540169,0 -2.78125,1.20983 -2.78125,2.75 0,1.54017 1.241081,2.8125 2.78125,2.8125 1.54017,0 2.8125,-1.27233 2.8125,-2.8125 0,-1.54017 -1.27233,-2.75 -2.8125,-2.75 z m -2.28125,5.75 -4.25,4.25 L 10,60 l 6.53125,-2.78125 -4.25,-4.25 c -0.637341,0.49534 -1.420064,0.8125 -2.28125,0.8125 -0.861186,0 -1.6439093,-0.31716 -2.28125,-0.8125 z"
       id="path3766" />
    <path
       id="path3768"
       d="M 20,10 13.46875,12.78125 17.6875,17 c 0.640495,-0.49157 1.442713,-0.78125 2.3125,-0.78125 0.869788,0 1.672006,0.28968 2.3125,0.78125 L 26.53125,12.78125 20,10 z M 12.78125,13.46875 10,20 3.46875,22.78125 7.6875,27 C 8.3279943,26.50843 9.1302123,26.21875 10,26.21875 c 0.869788,0 1.672006,0.28968 2.3125,0.78125 l 0.46875,-0.46875 3.75,-3.75 0.5,-0.5 c -0.494965,-0.64578 -0.8125,-1.44558 -0.8125,-2.3125 0,-0.85839 0.326303,-1.61995 0.8125,-2.25 l -4.25,-4.25 z m 14.4375,0 -4.25,4.25 c 0.486198,0.63005 0.8125,1.39161 0.8125,2.25 0,0.86692 -0.317534,1.66672 -0.8125,2.3125 l 4.25,4.25 L 30,20 27.21875,13.46875 z M 20,17.21875 c -1.540169,0 -2.78125,1.20983 -2.78125,2.75 0,1.54017 1.241081,2.8125 2.78125,2.8125 1.54017,0 2.8125,-1.27233 2.8125,-2.8125 0,-1.54017 -1.27233,-2.75 -2.8125,-2.75 z m -2.28125,5.75 -0.5,0.5 -3.75,3.75 -0.5,0.5 c 0.486198,0.63005 0.8125,1.39161 0.8125,2.25 0,0.86692 -0.317534,1.66672 -0.8125,2.3125 l 4.25,4.25 L 20,30 l 6.53125,-2.78125 -4.25,-4.25 c -0.637341,0.49534 -1.420064,0.8125 -2.28125,0.8125 -0.861186,0 -1.643909,-0.31716 -2.28125,-0.8125 z m -14.9375,0.5 L 0,30 l 2.78125,6.53125 4.25,-4.25 c -0.4949655,-0.64578 -0.8125,-1.44558 -0.8125,-2.3125 0,-0.85839 0.3263023,-1.61995 0.8125,-2.25 l -4.25,-4.25 z M 10,27.21875 c -1.540169,0 -2.78125,1.20983 -2.78125,2.75 0,1.54017 1.241081,2.8125 2.78125,2.8125 1.54017,0 2.8125,-1.27233 2.8125,-2.8125 0,-1.54017 -1.27233,-2.75 -2.8125,-2.75 z m -2.28125,5.75 -4.25,4.25 L 10,40 l 6.53125,-2.78125 -4.25,-4.25 c -0.637341,0.49534 -1.420064,0.8125 -2.28125,0.8125 -0.861186,0 -1.6439093,-0.31716 -2.28125,-0.8125 z"
       style="fill:#282880;fill-opacity:1;stroke:none"
       inkscape:connector-curvature="0" />
    <path
       style="fill:#282880;fill-opacity:1;stroke:none"
       d="M 45.09375,78.9375 45,79.0625 c -0.0013,1.420106 -0.0065,3.979975 0,5.59375 l 8.59375,0 c 0.110976,-0.566036 0.476849,-1.127604 1.125,-1.5625 0.648151,-0.434896 1.468903,-0.675538 2.3125,-0.75 l 0,-3.40625 -11.9375,0 z m 12.96875,0 0,3.4375 c 0.831808,0.07193 1.641591,0.289552 2.28125,0.71875 0.646015,0.433462 1.012615,0.992123 1.125,1.5625 l 8.53125,0 0,-5.71875 -11.9375,0 z m -0.5,4.09375 c -0.749343,0.0078 -1.519897,0.177461 -2.09375,0.5625 -1.147708,0.770088 -1.178955,2.011161 -0.03125,2.78125 1.147709,0.770088 3.039792,0.770083 4.1875,0 1.147709,-0.770089 1.147709,-2.042412 0,-2.8125 -0.573855,-0.385044 -1.313157,-0.539061 -2.0625,-0.53125 z m -12.5,2.3125 c 0.0082,1.829456 -6.32e-4,2.542427 0,3.625 L 45,89.0625 c -0.0013,1.420106 -0.0065,3.979975 0,5.59375 l 8.59375,0 c 0.110976,-0.566036 0.476849,-1.127604 1.125,-1.5625 0.648151,-0.434896 1.468903,-0.675538 2.3125,-0.75 l 0,-2.34375 0,-1.0625 0,-1.3125 c -0.850067,-0.07541 -1.666485,-0.316538 -2.3125,-0.75 -0.639659,-0.429198 -0.986553,-0.973124 -1.09375,-1.53125 l -8.5625,0 z m 16.40625,0 c -0.105819,0.566342 -0.452009,1.100655 -1.09375,1.53125 -0.641741,0.430595 -1.468447,0.678998 -2.3125,0.75 l 0,1.3125 0,1.0625 0,2.375 c 0.831808,0.07193 1.641591,0.289552 2.28125,0.71875 0.646015,0.433462 1.012615,0.992123 1.125,1.5625 L 70,94.65625 70,90 l 0,-1.0625 0,-3.59375 -8.53125,0 z m -3.90625,7.6875 c -0.749343,0.0078 -1.519897,0.177461 -2.09375,0.5625 -1.147708,0.770088 -1.178955,2.011161 -0.03125,2.78125 1.147709,0.770088 3.039792,0.770083 4.1875,0 1.147709,-0.770089 1.147709,-2.042412 0,-2.8125 -0.573855,-0.385044 -1.313157,-0.539061 -2.0625,-0.53125 z m -12.5,2.3125 c 0.01033,2.318362 -0.01304,2.829334 0,4.59375 l 0.03125,0.0625 11.9375,0 0,-2.375 c -0.850067,-0.07541 -1.666485,-0.316538 -2.3125,-0.75 -0.639659,-0.429198 -0.986553,-0.973124 -1.09375,-1.53125 l -8.5625,0 z m 16.40625,0 c -0.105819,0.566342 -0.452009,1.100655 -1.09375,1.53125 -0.641741,0.430595 -1.468447,0.678998 -2.3125,0.75 l 0,2.375 11.9375,0 0,-4.65625 -8.53125,0 z"
       id="path3770"
       inkscape:connector-curvature="0" />
    <path
       id="path3789"
       d="M 45.09375,58.9375 45,59.0625 c -0.0013,1.420106 -0.0065,3.979975 0,5.59375 l 8.59375,0 c 0.110976,-0.566036 0.476849,-1.127604 1.125,-1.5625 0.648151,-0.434896 1.468903,-0.675538 2.3125,-0.75 l 0,-3.40625 -11.9375,0 z m 12.96875,0 0,3.4375 c 0.831808,0.07193 1.641591,0.289552 2.28125,0.71875 0.646015,0.433462 1.012615,0.992123 1.125,1.5625 l 8.53125,0 0,-5.71875 -11.9375,0 z m -0.5,4.09375 c -0.749343,0.0078 -1.519897,0.177461 -2.09375,0.5625 -1.147708,0.770088 -1.178955,2.011161 -0.03125,2.78125 1.147709,0.770088 3.039792,0.770083 4.1875,0 1.147709,-0.770089 1.147709,-2.042412 0,-2.8125 -0.573855,-0.385044 -1.313157,-0.539061 -2.0625,-0.53125 z m -12.5,2.3125 c 0.0082,1.829456 -6.32e-4,2.542427 0,3.625 L 45,69.0625 c -0.0013,1.420106 -0.0065,3.979975 0,5.59375 l 8.59375,0 c 0.110976,-0.566036 0.476849,-1.127604 1.125,-1.5625 0.648151,-0.434896 1.468903,-0.675538 2.3125,-0.75 l 0,-2.34375 0,-1.0625 0,-1.3125 c -0.850067,-0.07541 -1.666485,-0.316538 -2.3125,-0.75 -0.639659,-0.429198 -0.986553,-0.973124 -1.09375,-1.53125 l -8.5625,0 z m 16.40625,0 c -0.105819,0.566342 -0.452009,1.100655 -1.09375,1.53125 -0.641741,0.430595 -1.468447,0.678998 -2.3125,0.75 l 0,1.3125 0,1.0625 0,2.375 c 0.831808,0.07193 1.641591,0.289552 2.28125,0.71875 0.646015,0.433462 1.012615,0.992123 1.125,1.5625 L 70,74.65625 70,70 l 0,-1.0625 0,-3.59375 -8.53125,0 z m -3.90625,7.6875 c -0.749343,0.0078 -1.519897,0.177461 -2.09375,0.5625 -1.147708,0.770088 -1.178955,2.011161 -0.03125,2.78125 1.147709,0.770088 3.039792,0.770083 4.1875,0 1.147709,-0.770089 1.147709,-2.042412 0,-2.8125 -0.573855,-0.385044 -1.313157,-0.539061 -2.0625,-0.53125 z m -12.5,2.3125 c 0.01033,2.318362 -0.01304,2.829334 0,4.59375 L 45.09375,80 l 11.9375,0 0,-2.375 c -0.850067,-0.07541 -1.666485,-0.316538 -2.3125,-0.75 -0.639659,-0.429198 -0.986553,-0.973124 -1.09375,-1.53125 l -8.5625,0 z m 16.40625,0 c -0.105819,0.566342 -0.452009,1.100655 -1.09375,1.53125 -0.641741,0.430595 -1.468447,0.678998 -2.3125,0.75 l 0,2.375 11.9375,0 0,-4.65625 -8.53125,0 z"
       style="fill:#282880;fill-opacity:1;stroke:none"
       inkscape:connector-curvature="0" />
    <path
       inkscape:connector-curvature="0"
       style="fill:#282880;fill-opacity:1;stroke:none"
       d="M 45.09375,38.9375 45,39.0625 c -0.0013,1.420106 -0.0065,3.979975 0,5.59375 l 8.59375,0 c 0.110976,-0.566036 0.476849,-1.127604 1.125,-1.5625 0.648151,-0.434896 1.468903,-0.675538 2.3125,-0.75 l 0,-3.40625 -11.9375,0 z m 12.96875,0 0,3.4375 c 0.831808,0.07193 1.641591,0.289552 2.28125,0.71875 0.646015,0.433462 1.012615,0.992123 1.125,1.5625 l 8.53125,0 0,-5.71875 -11.9375,0 z m -0.5,4.09375 c -0.749343,0.0078 -1.519897,0.177461 -2.09375,0.5625 -1.147708,0.770088 -1.178955,2.011161 -0.03125,2.78125 1.147709,0.770088 3.039792,0.770083 4.1875,0 1.147709,-0.770089 1.147709,-2.042412 0,-2.8125 -0.573855,-0.385044 -1.313157,-0.539061 -2.0625,-0.53125 z m -12.5,2.3125 c 0.0082,1.829456 -6.32e-4,2.542427 0,3.625 L 45,49.0625 c -0.0013,1.420106 -0.0065,3.979975 0,5.59375 l 8.59375,0 c 0.110976,-0.566036 0.476849,-1.127604 1.125,-1.5625 0.648151,-0.434896 1.468903,-0.675538 2.3125,-0.75 l 0,-2.34375 0,-1.0625 0,-1.3125 c -0.850067,-0.07541 -1.666485,-0.316538 -2.3125,-0.75 -0.639659,-0.429198 -0.986553,-0.973124 -1.09375,-1.53125 l -8.5625,0 z m 16.40625,0 c -0.105819,0.566342 -0.452009,1.100655 -1.09375,1.53125 -0.641741,0.430595 -1.468447,0.678998 -2.3125,0.75 l 0,1.3125 0,1.0625 0,2.375 c 0.831808,0.07193 1.641591,0.289552 2.28125,0.71875 0.646015,0.433462 1.012615,0.992123 1.125,1.5625 L 70,54.65625 70,50 l 0,-1.0625 0,-3.59375 -8.53125,0 z m -3.90625,7.6875 c -0.749343,0.0078 -1.519897,0.177461 -2.09375,0.5625 -1.147708,0.770088 -1.178955,2.011161 -0.03125,2.78125 1.147709,0.770088 3.039792,0.770083 4.1875,0 1.147709,-0.770089 1.147709,-2.042412 0,-2.8125 -0.573855,-0.385044 -1.313157,-0.539061 -2.0625,-0.53125 z m -12.5,2.3125 c 0.01033,2.318362 -0.01304,2.829334 0,4.59375 L 45.09375,60 l 11.9375,0 0,-2.375 c -0.850067,-0.07541 -1.666485,-0.316538 -2.3125,-0.75 -0.639659,-0.429198 -0.986553,-0.973124 -1.09375,-1.53125 l -8.5625,0 z m 16.40625,0 c -0.105819,0.566342 -0.452009,1.100655 -1.09375,1.53125 -0.641741,0.430595 -1.468447,0.678998 -2.3125,0.75 l 0,2.375 11.9375,0 0,-4.65625 -8.53125,0 z"
       id="path3791" />
    <path
       id="path3793"
       d="M 45.09375,18.9375 45,19.0625 c -0.0013,1.420106 -0.0065,3.979975 0,5.59375 l 8.59375,0 c 0.110976,-0.566036 0.476849,-1.127604 1.125,-1.5625 0.648151,-0.434896 1.468903,-0.675538 2.3125,-0.75 l 0,-3.40625 -11.9375,0 z m 12.96875,0 0,3.4375 c 0.831808,0.07193 1.641591,0.289552 2.28125,0.71875 0.646015,0.433462 1.012615,0.992123 1.125,1.5625 l 8.53125,0 0,-5.71875 -11.9375,0 z m -0.5,4.09375 c -0.749343,0.0078 -1.519897,0.177461 -2.09375,0.5625 -1.147708,0.770088 -1.178955,2.011161 -0.03125,2.78125 1.147709,0.770088 3.039792,0.770083 4.1875,0 1.147709,-0.770089 1.147709,-2.042412 0,-2.8125 -0.573855,-0.385044 -1.313157,-0.539061 -2.0625,-0.53125 z m -12.5,2.3125 c 0.0082,1.829456 -6.32e-4,2.542427 0,3.625 L 45,29.0625 c -0.0013,1.420106 -0.0065,3.979975 0,5.59375 l 8.59375,0 c 0.110976,-0.566036 0.476849,-1.127604 1.125,-1.5625 0.648151,-0.434896 1.468903,-0.675538 2.3125,-0.75 l 0,-2.34375 0,-1.0625 0,-1.3125 c -0.850067,-0.07541 -1.666485,-0.316538 -2.3125,-0.75 -0.639659,-0.429198 -0.986553,-0.973124 -1.09375,-1.53125 l -8.5625,0 z m 16.40625,0 c -0.105819,0.566342 -0.452009,1.100655 -1.09375,1.53125 -0.641741,0.430595 -1.468447,0.678998 -2.3125,0.75 l 0,1.3125 0,1.0625 0,2.375 c 0.831808,0.07193 1.641591,0.289552 2.28125,0.71875 0.646015,0.433462 1.012615,0.992123 1.125,1.5625 L 70,34.65625 70,30 l 0,-1.0625 0,-3.59375 -8.53125,0 z m -3.90625,7.6875 c -0.749343,0.0078 -1.519897,0.177461 -2.09375,0.5625 -1.147708,0.770088 -1.178955,2.011161 -0.03125,2.78125 1.147709,0.770088 3.039792,0.770083 4.1875,0 1.147709,-0.770089 1.147709,-2.042412 0,-2.8125 -0.573855,-0.385044 -1.313157,-0.539061 -2.0625,-0.53125 z m -12.5,2.3125 c 0.01033,2.318362 -0.01304,2.829334 0,4.59375 L 45.09375,40 l 11.9375,0 0,-2.375 c -0.850067,-0.07541 -1.666485,-0.316538 -2.3125,-0.75 -0.639659,-0.429198 -0.986553,-0.973124 -1.09375,-1.53125 l -8.5625,0 z m 16.40625,0 c -0.105819,0.566342 -0.452009,1.100655 -1.09375,1.53125 -0.641741,0.430595 -1.468447,0.678998 -2.3125,0.75 l 0,2.375 11.9375,0 0,-4.65625 -8.53125,0 z"
       style="fill:#282880;fill-opacity:1;stroke:none"
       inkscape:connector-curvature="0" />
    <path
       inkscape:connector-curvature="0"
       style="fill:#282880;fill-opacity:1;stroke:none"
       d="M 45.09375,-1.0625 45,-0.9375 c -0.0013,1.420106 -0.0065,3.979975 0,5.59375 l 8.59375,0 c 0.110976,-0.566036 0.476849,-1.127604 1.125,-1.5625 0.648151,-0.434896 1.468903,-0.675538 2.3125,-0.75 l 0,-3.40625 -11.9375,0 z m 12.96875,0 0,3.4375 c 0.831808,0.07193 1.641591,0.289552 2.28125,0.71875 0.646015,0.433462 1.012615,0.992123 1.125,1.5625 l 8.53125,0 0,-5.71875 -11.9375,0 z m -0.5,4.09375 c -0.749343,0.0078 -1.519897,0.177461 -2.09375,0.5625 -1.147708,0.770088 -1.178955,2.011161 -0.03125,2.78125 1.147709,0.770088 3.039792,0.770083 4.1875,0 1.147709,-0.770089 1.147709,-2.042412 0,-2.8125 C 59.051145,3.177456 58.311843,3.023439 57.5625,3.03125 z m -12.5,2.3125 c 0.0082,1.829456 -6.32e-4,2.542427 0,3.625 L 45,9.0625 c -0.0013,1.420106 -0.0065,3.979975 0,5.59375 l 8.59375,0 c 0.110976,-0.566036 0.476849,-1.127604 1.125,-1.5625 0.648151,-0.434896 1.468903,-0.675538 2.3125,-0.75 l 0,-2.34375 0,-1.0625 0,-1.3125 C 56.181183,7.54959 55.364765,7.308462 54.71875,6.875 54.079091,6.445802 53.732197,5.901876 53.625,5.34375 l -8.5625,0 z m 16.40625,0 C 61.362931,5.910092 61.016741,6.444405 60.375,6.875 59.733259,7.305595 58.906553,7.553998 58.0625,7.625 l 0,1.3125 0,1.0625 0,2.375 c 0.831808,0.07193 1.641591,0.289552 2.28125,0.71875 0.646015,0.433462 1.012615,0.992123 1.125,1.5625 L 70,14.65625 70,10 l 0,-1.0625 0,-3.59375 -8.53125,0 z m -3.90625,7.6875 c -0.749343,0.0078 -1.519897,0.177461 -2.09375,0.5625 -1.147708,0.770088 -1.178955,2.011161 -0.03125,2.78125 1.147709,0.770088 3.039792,0.770083 4.1875,0 1.147709,-0.770089 1.147709,-2.042412 0,-2.8125 -0.573855,-0.385044 -1.313157,-0.539061 -2.0625,-0.53125 z m -12.5,2.3125 c 0.01033,2.318362 -0.01304,2.829334 0,4.59375 L 45.09375,20 l 11.9375,0 0,-2.375 c -0.850067,-0.07541 -1.666485,-0.316538 -2.3125,-0.75 -0.639659,-0.429198 -0.986553,-0.973124 -1.09375,-1.53125 l -8.5625,0 z m 16.40625,0 c -0.105819,0.566342 -0.452009,1.100655 -1.09375,1.53125 -0.641741,0.430595 -1.468447,0.678998 -2.3125,0.75 l 0,2.375 11.9375,0 0,-4.65625 -8.53125,0 z"
       id="path3795" />
  </g>
</svg>
