<?xml version="1.0" encoding="UTF-8" standalone="no"?>
<!-- Created with Inkscape (http://www.inkscape.org/) -->

<svg
   xmlns:dc="http://purl.org/dc/elements/1.1/"
   xmlns:cc="http://creativecommons.org/ns#"
   xmlns:rdf="http://www.w3.org/1999/02/22-rdf-syntax-ns#"
   xmlns:svg="http://www.w3.org/2000/svg"
   xmlns="http://www.w3.org/2000/svg"
   xmlns:sodipodi="http://sodipodi.sourceforge.net/DTD/sodipodi-0.dtd"
   xmlns:inkscape="http://www.inkscape.org/namespaces/inkscape"
   width="100"
   height="100"
   id="svg2"
   version="1.1"
   inkscape:version="0.48.2 r9819"
   inkscape:export-filename="C:\Users\Lutyens\Desktop\ObjData\BoxSphere\Stage\objTex1.png"
   inkscape:export-xdpi="460.79999"
   inkscape:export-ydpi="460.79999"
   sodipodi:docname="objTex1.svg">
  <defs
     id="defs4" />
  <sodipodi:namedview
     id="base"
     pagecolor="#ffffff"
     bordercolor="#666666"
     borderopacity="1.0"
     inkscape:pageopacity="0.0"
     inkscape:pageshadow="2"
     inkscape:zoom="8.59"
     inkscape:cx="50"
     inkscape:cy="50"
     inkscape:document-units="px"
     inkscape:current-layer="layer2"
     showgrid="false"
     inkscape:window-width="1679"
     inkscape:window-height="1058"
     inkscape:window-x="83"
     inkscape:window-y="-8"
     inkscape:window-maximized="1" />
  <metadata
     id="metadata7">
    <rdf:RDF>
      <cc:Work
         rdf:about="">
        <dc:format>image/svg+xml</dc:format>
        <dc:type
           rdf:resource="http://purl.org/dc/dcmitype/StillImage" />
        <dc:title></dc:title>
      </cc:Work>
    </rdf:RDF>
  </metadata>
  <g
     inkscape:label="レイヤー 1"
     inkscape:groupmode="layer"
     id="layer1"
     transform="translate(0,-952.36218)"
     style="display:none">
    <rect
       style="fill:#282880;fill-opacity:1;fill-rule:evenodd;stroke:none"
       id="rect3753"
       width="100"
       height="100"
       x="0"
       y="952.36218" />
  </g>
  <g
     inkscape:groupmode="layer"
     id="layer2"
     inkscape:label="レイヤー"
     style="display:inline">
    <path
       style="fill:#282880;fill-opacity:1;fill-rule:evenodd;stroke:none"
       d="M 15 40 L 15 49.5 L 18.96875 49.5 L 24.5 49.5 L 25.5 49.5 L 30.28125 49.5 L 35 49.5 L 35 40 L 30.28125 40 L 25.5 40 L 24.5 40 L 18.96875 40 L 15 40 z M 15 50.5 L 15 58.09375 L 22 58.09375 C 22.208395 56.887884 23.179468 55.894907 24.5 55.6875 L 24.5 50.5 L 15 50.5 z M 25.5 50.5 L 25.5 55.6875 C 26.832575 55.886644 27.790359 56.880673 28 58.09375 L 35 58.09375 L 35 50.5 L 25.5 50.5 z M 25 56.53125 C 23.999569 56.53125 23.0625 57.373801 23.0625 58.5625 C 23.0625 59.7512 23.999569 60.625 25 60.625 C 26.00043 60.625 26.9375 59.7512 26.9375 58.5625 C 26.9375 57.373801 26.00043 56.53125 25 56.53125 z M 15 59.09375 L 15 68.4375 L 24.5 68.4375 L 24.5 61.46875 C 23.190873 61.262059 22.221159 60.289914 22 59.09375 L 15 59.09375 z M 28 59.09375 C 27.778841 60.289914 26.809127 61.262059 25.5 61.46875 L 25.5 68.4375 L 35 68.4375 L 35 59.09375 L 28 59.09375 z M 15 69.4375 L 15 78.78125 L 24.5 78.78125 L 24.5 69.4375 L 15 69.4375 z M 25.5 69.4375 L 25.5 78.78125 L 35 78.78125 L 35 69.4375 L 25.5 69.4375 z M 15 79.78125 L 15 89.15625 L 24.5 89.15625 L 24.5 79.78125 L 15 79.78125 z M 25.5 79.78125 L 25.5 89.15625 L 35 89.15625 L 35 79.78125 L 25.5 79.78125 z M 15 90.15625 L 15 100 L 24.5 100 L 24.5 90.15625 L 15 90.15625 z M 25.5 90.15625 L 25.5 100 L 35 100 L 35 90.15625 L 25.5 90.15625 z "
       id="rect3765" />
    <path
       style="fill:#282880;fill-opacity:1;fill-rule:evenodd;stroke:none"
       d="M 65 0 L 65 9.84375 L 74.5 9.84375 L 74.5 0 L 65 0 z M 75.5 0 L 75.5 9.84375 L 85 9.84375 L 85 0 L 75.5 0 z M 65 10.84375 L 65 20.21875 L 74.5 20.21875 L 74.5 10.84375 L 65 10.84375 z M 75.5 10.84375 L 75.5 20.21875 L 85 20.21875 L 85 10.84375 L 75.5 10.84375 z M 65 21.21875 L 65 30.5625 L 74.5 30.5625 L 74.5 21.21875 L 65 21.21875 z M 75.5 21.21875 L 75.5 30.5625 L 85 30.5625 L 85 21.21875 L 75.5 21.21875 z M 65 31.5625 L 65 40.90625 L 72 40.90625 C 72.221159 39.710086 73.190873 38.737941 74.5 38.53125 L 74.5 31.5625 L 65 31.5625 z M 75.5 31.5625 L 75.5 38.53125 C 76.809127 38.737941 77.778841 39.710086 78 40.90625 L 85 40.90625 L 85 31.5625 L 75.5 31.5625 z M 75 39.375 C 73.999569 39.375 73.0625 40.2488 73.0625 41.4375 C 73.0625 42.626199 73.999569 43.46875 75 43.46875 C 76.00043 43.46875 76.9375 42.626199 76.9375 41.4375 C 76.9375 40.2488 76.00043 39.375 75 39.375 z M 65 41.90625 L 65 49.5 L 74.5 49.5 L 74.5 44.3125 C 73.179468 44.105093 72.208395 43.112116 72 41.90625 L 65 41.90625 z M 78 41.90625 C 77.790359 43.119327 76.832575 44.113356 75.5 44.3125 L 75.5 49.5 L 85 49.5 L 85 41.90625 L 78 41.90625 z M 65 50.5 L 65 60 L 69.03125 60 L 74.5 60 L 75.5 60 L 80.3125 60 L 85 60 L 85 50.5 L 80.3125 50.5 L 75.5 50.5 L 74.5 50.5 L 69.03125 50.5 L 65 50.5 z "
       id="path3829" />
  </g>
  <g
     inkscape:groupmode="layer"
     id="layer3"
     inkscape:label="レイヤー#1"
     style="display:none"
     sodipodi:insensitive="true">
    <path
       style="fill:none;stroke:#000000;stroke-width:0.5;stroke-linecap:butt;stroke-linejoin:miter;stroke-miterlimit:4;stroke-opacity:1;stroke-dasharray:none"
       d="M 17.696,58.579 25,100 32.304,58.579 25,41.421 z"
       id="path3757"
       inkscape:connector-curvature="0"
       sodipodi:nodetypes="ccccc" />
    <path
       style="fill:none;stroke:#000000;stroke-width:0.5;stroke-linecap:butt;stroke-linejoin:miter;stroke-miterlimit:4;stroke-opacity:1;stroke-dasharray:none"
       d="M 67.696,41.421 75,58.579 82.304,41.421 75,0 z"
       id="path3759"
       inkscape:connector-curvature="0"
       sodipodi:nodetypes="ccccc" />
  </g>
</svg>
