<?xml version="1.0" encoding="UTF-8" standalone="no"?>
<!-- Created with Inkscape (http://www.inkscape.org/) -->

<svg
   xmlns:dc="http://purl.org/dc/elements/1.1/"
   xmlns:cc="http://creativecommons.org/ns#"
   xmlns:rdf="http://www.w3.org/1999/02/22-rdf-syntax-ns#"
   xmlns:svg="http://www.w3.org/2000/svg"
   xmlns="http://www.w3.org/2000/svg"
   xmlns:sodipodi="http://sodipodi.sourceforge.net/DTD/sodipodi-0.dtd"
   xmlns:inkscape="http://www.inkscape.org/namespaces/inkscape"
   width="256"
   height="256"
   id="svg2"
   version="1.1"
   inkscape:version="0.48.2 r9819"
   sodipodi:docname="coat1.svg"
   inkscape:export-filename="C:\Users\Lutyens\Desktop\ObjData\SQUARE\Issachar\coat1.png"
   inkscape:export-xdpi="90"
   inkscape:export-ydpi="90">
  <defs
     id="defs4" />
  <sodipodi:namedview
     id="base"
     pagecolor="#ffffff"
     bordercolor="#666666"
     borderopacity="1.0"
     inkscape:pageopacity="0.0"
     inkscape:pageshadow="2"
     inkscape:zoom="3.3554688"
     inkscape:cx="128"
     inkscape:cy="128"
     inkscape:document-units="px"
     inkscape:current-layer="layer1"
     showgrid="false"
     inkscape:window-width="1679"
     inkscape:window-height="1058"
     inkscape:window-x="83"
     inkscape:window-y="-8"
     inkscape:window-maximized="1"
     inkscape:showpageshadow="false" />
  <metadata
     id="metadata7">
    <rdf:RDF>
      <cc:Work
         rdf:about="">
        <dc:format>image/svg+xml</dc:format>
        <dc:type
           rdf:resource="http://purl.org/dc/dcmitype/StillImage" />
        <dc:title></dc:title>
      </cc:Work>
    </rdf:RDF>
  </metadata>
  <g
     inkscape:label="レイヤー 1"
     inkscape:groupmode="layer"
     id="layer1"
     transform="translate(0,-796.36218)"
     style="display:inline">
    <rect
       style="fill:#424f63;fill-opacity:1;fill-rule:evenodd;stroke:none"
       id="rect3753"
       width="256"
       height="256"
       x="0"
       y="796.36218" />
    <path
       style="fill:#724521;fill-opacity:1;stroke:none"
       d="m 68.200239,939.47239 c 0,0 14.332742,-22.27874 25.323915,-30.11028 8.068586,-5.74911 17.959636,-10.90318 28.278366,-11.29134 8.93545,-0.33613 25.3239,7.90396 25.3239,7.90396 0,0 -15.96932,1.1769 -22.79151,4.51652 -8.02298,3.92746 -16.04301,9.72591 -19.41501,17.31341 -3.37079,7.58481 -2.78665,16.97582 0.84413,24.46459 2.36874,4.88572 12.66195,11.29135 12.66195,11.29135 0,0 -1.23507,-11.67934 2.5324,-15.8079 3.39885,-3.72459 9.85109,-5.48891 15.19435,-4.8929 5.22712,0.58302 10.9599,3.60514 13.08401,7.90394 2.35068,4.75727 0.5183,11.00152 -2.53237,15.43151 -3.06399,4.4493 -8.70448,7.64947 -14.35023,9.03307 -6.93985,1.70075 -21.52533,-1.50552 -21.52533,-1.50552 0,0 11.73763,10.41874 19.415,11.66774 7.82199,1.27251 16.53751,-1.04186 23.21358,-4.89291 6.40298,-3.69349 13.92815,-16.18428 13.92815,-16.18428 0,0 6.82094,17.07339 5.06479,25.59373 -1.98458,9.62856 -8.0022,19.46172 -16.88261,25.21722 -10.73933,6.9607 -25.58315,8.6917 -38.82999,7.904 -13.63678,-0.8107 -38.407935,-12.7967 -38.407935,-12.7967 0,0 11.517147,20.7734 21.947385,26.7228 11.36598,6.4831 26.22561,8.1182 39.67414,7.1511 10.34024,-0.7435 20.72922,-4.3491 29.12249,-9.7858 8.74631,-5.6653 20.25913,-22.5826 20.25913,-22.5826 0,0 23.43421,5.5196 33.76521,1.5055 11.6258,-4.5173 24.47979,-25.97017 24.47979,-25.97017 0,0 -13.62489,4.45792 -20.68118,4.1401 -7.1093,-0.32015 -14.54508,-2.2365 -20.25916,-6.02199 -4.70002,-3.11369 -10.12956,-12.79687 -10.12956,-12.79687 0,0 27.21429,-5.53908 35.87555,-14.30236 C 244.24298,946.29219 248,912.37315 248,912.37315 c 0,0 -13.41366,17.9631 -24.05772,21.45356 -13.11492,4.30073 -41.78446,-3.01101 -41.78446,-3.01101 0,0 19.47673,-17.83575 30.38871,-23.33548 10.91198,-5.4997 33.34314,-9.78583 33.34314,-9.78583 0,0 -27.86228,-7.25635 -42.20652,-7.52756 -13.66688,-0.25842 -40.51824,5.64567 -40.51824,5.64567 l -32.07698,-12.04412 35.87555,-14.30235 c 0,0 -27.45756,-5.16876 -41.36238,-4.89293 -14.42987,0.28625 -42.628587,6.77481 -42.628587,6.77481 l 24.901847,4.51654 c 0,0 -20.668525,12.58767 -27.012171,21.82994 -8.445018,12.30387 -12.66195,41.778 -12.66195,41.778 z"
       id="path3761"
       inkscape:connector-curvature="0"
       sodipodi:nodetypes="csscssscssssscsscssscssscscsscscscscscccsccsc" />
    <path
       style="fill:none;stroke:#000000;stroke-width:1px;stroke-linecap:butt;stroke-linejoin:miter;stroke-opacity:1"
       d="M -7.1525028,251 262.55646,251"
       id="path3752"
       inkscape:connector-curvature="0"
       transform="translate(0,796.36218)"
       sodipodi:nodetypes="cc" />
  </g>
</svg>
