<?xml version="1.0" encoding="UTF-8" standalone="no"?>
<!-- Created with Inkscape (http://www.inkscape.org/) -->

<svg
   xmlns:dc="http://purl.org/dc/elements/1.1/"
   xmlns:cc="http://creativecommons.org/ns#"
   xmlns:rdf="http://www.w3.org/1999/02/22-rdf-syntax-ns#"
   xmlns:svg="http://www.w3.org/2000/svg"
   xmlns="http://www.w3.org/2000/svg"
   xmlns:xlink="http://www.w3.org/1999/xlink"
   xmlns:sodipodi="http://sodipodi.sourceforge.net/DTD/sodipodi-0.dtd"
   xmlns:inkscape="http://www.inkscape.org/namespaces/inkscape"
   width="256"
   height="256"
   id="svg2"
   version="1.1"
   inkscape:version="0.48.2 r9819"
   sodipodi:docname="Sol_eye.svg"
   inkscape:export-filename="C:\Users\Lutyens\Desktop\ObjData\SQUARE\Sol_eye.png"
   inkscape:export-xdpi="90"
   inkscape:export-ydpi="90">
  <defs
     id="defs4">
    <linearGradient
       id="linearGradient3817">
      <stop
         style="stop-color:#9e5d00;stop-opacity:1;"
         offset="0"
         id="stop3819" />
      <stop
         style="stop-color:#e39900;stop-opacity:1;"
         offset="1"
         id="stop3821" />
    </linearGradient>
    <linearGradient
       inkscape:collect="always"
       xlink:href="#linearGradient3817"
       id="linearGradient3823"
       x1="128.41658"
       y1="123.95537"
       x2="128.7755"
       y2="195.18237"
       gradientUnits="userSpaceOnUse" />
  </defs>
  <sodipodi:namedview
     id="base"
     pagecolor="#ffffff"
     bordercolor="#666666"
     borderopacity="1.0"
     inkscape:pageopacity="0.0"
     inkscape:pageshadow="2"
     inkscape:zoom="3.3554688"
     inkscape:cx="128"
     inkscape:cy="128"
     inkscape:document-units="px"
     inkscape:current-layer="layer1"
     showgrid="false"
     inkscape:window-width="1678"
     inkscape:window-height="1058"
     inkscape:window-x="84"
     inkscape:window-y="-8"
     inkscape:window-maximized="1" />
  <metadata
     id="metadata7">
    <rdf:RDF>
      <cc:Work
         rdf:about="">
        <dc:format>image/svg+xml</dc:format>
        <dc:type
           rdf:resource="http://purl.org/dc/dcmitype/StillImage" />
        <dc:title></dc:title>
      </cc:Work>
    </rdf:RDF>
  </metadata>
  <g
     inkscape:label="レイヤー 1"
     inkscape:groupmode="layer"
     id="layer1"
     transform="translate(0,-796.36218)">
    <rect
       style="fill:#ffffff;fill-opacity:1;fill-rule:evenodd;stroke:none"
       id="rect3755"
       width="256"
       height="256"
       x="0"
       y="796.36218" />
    <path
       sodipodi:type="arc"
       style="fill:#653100;fill-opacity:1;stroke:none"
       id="path3753"
       sodipodi:cx="113.844"
       sodipodi:cy="140.21886"
       sodipodi:rx="49.173458"
       sodipodi:ry="85.979042"
       d="m 163.01746,140.21886 a 49.173458,85.979042 0 1 1 -98.346916,0 49.173458,85.979042 0 1 1 98.346916,0 z"
       transform="matrix(1.0168087,0,0,0.81415189,12.242429,810.20273)" />
    <path
       style="fill:url(#linearGradient3823);fill-opacity:1;stroke:none"
       d="M 103 124.03125 C 95.265566 125.17549 87.922714 126.85548 81.03125 128.96875 C 81.394217 165.75288 102.26922 195.40625 128 195.40625 C 153.73078 195.40625 174.60578 165.75288 174.96875 128.96875 C 168.04115 126.8444 160.6538 125.17602 152.875 124.03125 C 152.95409 125.3359 153 126.6618 153 128 C 153 150.25238 141.80712 168.28125 128 168.28125 C 114.19288 168.28125 103 150.25238 103 128 C 103 126.6618 103.04591 125.3359 103.125 124.03125 C 103.08443 124.03722 103.04055 124.02525 103 124.03125 z "
       transform="translate(0,796.36218)"
       id="path3753-7" />
    <path
       sodipodi:type="arc"
       style="fill:#451400;fill-opacity:1;stroke:none"
       id="path3753-1"
       sodipodi:cx="113.844"
       sodipodi:cy="140.21886"
       sodipodi:rx="49.173458"
       sodipodi:ry="85.979042"
       d="m 163.01746,140.21886 a 49.173458,85.979042 0 1 1 -98.346916,0 49.173458,85.979042 0 1 1 98.346916,0 z"
       transform="matrix(0.45756391,0,0,0.43569339,75.909093,863.26975)" />
    <path
       sodipodi:type="arc"
       style="fill:#ffffff;fill-opacity:1;fill-rule:evenodd;stroke:none"
       id="path3825"
       sodipodi:cx="182.68684"
       sodipodi:cy="62.286381"
       sodipodi:rx="10.728754"
       sodipodi:ry="5.6623983"
       d="m 193.4156,62.286381 a 10.728754,5.6623983 0 1 1 -21.45751,0 10.728754,5.6623983 0 1 1 21.45751,0 z"
       transform="matrix(1.125,0,0,1.125,-43.250292,833.76381)" />
  </g>
</svg>
