<?xml version="1.0" encoding="UTF-8" standalone="no"?>
<!-- Created with Inkscape (http://www.inkscape.org/) -->

<svg
   xmlns:dc="http://purl.org/dc/elements/1.1/"
   xmlns:cc="http://creativecommons.org/ns#"
   xmlns:rdf="http://www.w3.org/1999/02/22-rdf-syntax-ns#"
   xmlns:svg="http://www.w3.org/2000/svg"
   xmlns="http://www.w3.org/2000/svg"
   xmlns:sodipodi="http://sodipodi.sourceforge.net/DTD/sodipodi-0.dtd"
   xmlns:inkscape="http://www.inkscape.org/namespaces/inkscape"
   width="100"
   height="100"
   id="svg2"
   version="1.1"
   inkscape:version="0.48.2 r9819"
   sodipodi:docname="angel.svg"
   inkscape:export-filename="C:\Users\Lutyens\Desktop\ObjData\BoxSphere\Harold\angel2.png"
   inkscape:export-xdpi="460.79999"
   inkscape:export-ydpi="460.79999">
  <defs
     id="defs4" />
  <sodipodi:namedview
     id="base"
     pagecolor="#ffffff"
     bordercolor="#666666"
     borderopacity="1.0"
     inkscape:pageopacity="0.0"
     inkscape:pageshadow="2"
     inkscape:zoom="8.59"
     inkscape:cx="56.675033"
     inkscape:cy="50"
     inkscape:document-units="px"
     inkscape:current-layer="layer5"
     showgrid="false"
     inkscape:window-width="1679"
     inkscape:window-height="1058"
     inkscape:window-x="83"
     inkscape:window-y="-8"
     inkscape:window-maximized="1" />
  <metadata
     id="metadata7">
    <rdf:RDF>
      <cc:Work
         rdf:about="">
        <dc:format>image/svg+xml</dc:format>
        <dc:type
           rdf:resource="http://purl.org/dc/dcmitype/StillImage" />
        <dc:title></dc:title>
      </cc:Work>
    </rdf:RDF>
  </metadata>
  <g
     inkscape:label="レイヤー 1"
     inkscape:groupmode="layer"
     id="layer1"
     transform="translate(0,-952.36218)"
     style="display:none"
     sodipodi:insensitive="true">
    <rect
       style="fill:#640080;fill-opacity:1;fill-rule:evenodd;stroke:none"
       id="rect4867"
       width="40"
       height="100"
       x="0"
       y="952.36218" />
  </g>
  <g
     inkscape:groupmode="layer"
     id="layer2"
     inkscape:label="レイヤー#3"
     style="display:inline">
    <rect
       style="fill:#282828;fill-opacity:1;fill-rule:evenodd;stroke:none"
       id="rect3782"
       width="13"
       height="13"
       x="0"
       y="87" />
    <rect
       style="fill:#282828;fill-opacity:1;fill-rule:evenodd;stroke:none"
       id="rect3784"
       width="8"
       height="5"
       x="0"
       y="81" />
    <rect
       style="fill:#282828;fill-opacity:1;fill-rule:evenodd;stroke:none"
       id="rect3786"
       width="7"
       height="8"
       x="14"
       y="92" />
    <path
       style="fill:#282828;fill-opacity:1;stroke:none"
       d="m 9,86 5,0 0,5 10,0 0,-15 -15,0 z"
       id="path3788"
       inkscape:connector-curvature="0"
       sodipodi:nodetypes="ccccccc" />
    <path
       style="fill:#282828;fill-opacity:1;fill-rule:evenodd;stroke:none"
       d="m 28,87 12,0 0,13 -12,0 z"
       id="rect3792"
       inkscape:connector-curvature="0"
       sodipodi:nodetypes="ccccc" />
    <path
       style="fill:#282828;fill-opacity:1;stroke:none"
       d="m 0,65 14,0 0,10 -6,0 0,5 -8,0 z"
       id="path3794"
       inkscape:connector-curvature="0"
       sodipodi:nodetypes="ccccccc" />
    <path
       style="fill:#282828;fill-opacity:1;stroke:none"
       d="m 11,59 0,5 4,0.02794 L 15,75 l 10,0 0,2 3,0 0,-4 -2,0 0,-3 -4,0 0,-11 z"
       id="path3796"
       inkscape:connector-curvature="0"
       sodipodi:nodetypes="ccccccccccccc" />
    <rect
       style="fill:#282828;fill-opacity:1;fill-rule:evenodd;stroke:none"
       id="rect3798"
       width="9"
       height="9"
       x="27"
       y="63" />
    <rect
       style="fill:#282828;fill-opacity:1;fill-rule:evenodd;stroke:none"
       id="rect3800"
       width="9"
       height="10"
       x="31"
       y="76" />
    <path
       style="fill:#282828;fill-opacity:1;stroke:none"
       d="m 25,81 5,0 0,5 -3,0 0,14 -5,0 0,-8 3,0 z"
       id="path3802"
       inkscape:connector-curvature="0"
       sodipodi:nodetypes="ccccccccc" />
    <rect
       style="fill:#282828;fill-opacity:1;fill-rule:evenodd;stroke:none"
       id="rect3805"
       width="9"
       height="9"
       x="16"
       y="46" />
    <rect
       style="fill:#282828;fill-opacity:1;fill-rule:evenodd;stroke:none"
       id="rect3807"
       width="7"
       height="15"
       x="33"
       y="43" />
    <rect
       style="fill:#282828;fill-opacity:1;fill-rule:evenodd;stroke:none"
       id="rect3809"
       width="9"
       height="9"
       x="31"
       y="16" />
    <rect
       style="fill:#282828;fill-opacity:1;fill-rule:evenodd;stroke:none"
       id="rect3811"
       width="7"
       height="10"
       x="33"
       y="26" />
    <rect
       style="fill:#282828;fill-opacity:1;fill-rule:evenodd;stroke:none"
       id="rect3813"
       width="9"
       height="9"
       x="15"
       y="8" />
    <rect
       style="fill:#282828;fill-opacity:1;fill-rule:evenodd;stroke:none"
       id="rect3815"
       width="10"
       height="11"
       x="0"
       y="8" />
    <rect
       style="fill:#282828;fill-opacity:1;fill-rule:evenodd;stroke:none"
       id="rect3817"
       width="10"
       height="11"
       x="0"
       y="45" />
    <rect
       style="fill:#282828;fill-opacity:1;fill-rule:evenodd;stroke:none"
       id="rect3819"
       width="6"
       height="6"
       x="26"
       y="47" />
    <rect
       style="fill:#282828;fill-opacity:1;fill-rule:evenodd;stroke:none"
       id="rect3821"
       width="4"
       height="2"
       x="18"
       y="56" />
    <path
       style="fill:#282828;fill-opacity:1;stroke:none"
       d="m 26,69 -3,0 0,-13 3,0 0,-2 6,0 0,5 8,0 0,10 -3,0 0,-7 -11,0 z"
       id="path3823"
       inkscape:connector-curvature="0"
       sodipodi:nodetypes="ccccccccccccc" />
    <path
       style="fill:#282828;fill-opacity:1;stroke:none"
       d="m 25,80 5,0 0,-5 10,0 0,-5 -3,0 0,3 -8,0 0,5 -4,0 z"
       id="path3825"
       inkscape:connector-curvature="0"
       sodipodi:nodetypes="ccccccccccc" />
    <rect
       style="fill:#282828;fill-opacity:1;fill-rule:evenodd;stroke:none"
       id="rect3827"
       width="4"
       height="7"
       x="17"
       y="-3.4947089e-015" />
    <rect
       style="fill:#282828;fill-opacity:1;fill-rule:evenodd;stroke:none"
       id="rect3829"
       width="11"
       height="4"
       x="0"
       y="28" />
    <path
       style="fill:#282828;fill-opacity:1;stroke:none"
       d="m 12,32 2,0 0,10 15,0 0,-17 -10,0 0,3 -7,0 z"
       id="path3831"
       inkscape:connector-curvature="0"
       sodipodi:nodetypes="ccccccccc" />
    <path
       style="fill:#282828;fill-opacity:1;stroke:none"
       d="m 24,43 0,2 2,0 0,1 6,0 0,-4 8,0 0,-5 -7.98603,0.136205 L 32,29 l -2,0 0,14 z"
       id="path3835"
       inkscape:connector-curvature="0"
       sodipodi:nodetypes="ccccccccccccc" />
    <path
       style="fill:#282828;fill-opacity:1;stroke:none"
       d="m 11,54 4,0 0,2 2,0 0,2 -7,0 0,6 -10,0 0,-7 11,0 z"
       id="path3837"
       inkscape:connector-curvature="0"
       sodipodi:nodetypes="ccccccccccc" />
    <path
       style="fill:#282828;fill-opacity:1;stroke:none"
       d="m 0,33 13,0 0,13 -2,0 0,-2 -11,0 z"
       id="path3839"
       inkscape:connector-curvature="0"
       sodipodi:nodetypes="ccccccc" />
    <path
       style="fill:#282828;fill-opacity:1;stroke:none"
       d="m 0,20 11,0 0,-8 3,0 0,6 4,0 0,9 -18,0 z"
       id="path3841"
       inkscape:connector-curvature="0"
       sodipodi:nodetypes="ccccccccc" />
    <path
       style="fill:#282828;fill-opacity:1;stroke:none"
       d="m 0,7 11,0 0,4 3,0 0,-4 2,0 0,-7 -16,0 z"
       id="path3843"
       inkscape:connector-curvature="0"
       sodipodi:nodetypes="ccccccccc" />
    <path
       style="fill:#282828;fill-opacity:1;stroke:none"
       d="m 22,0 0,7 3,0 0,4 15,0 0,-11 z"
       id="path3845"
       inkscape:connector-curvature="0"
       sodipodi:nodetypes="ccccccc" />
    <path
       style="fill:#282828;fill-opacity:1;stroke:none"
       d="m 30,18 -2,0 0,-6 12,0 0,3 -10,0 z"
       id="path3847"
       inkscape:connector-curvature="0"
       sodipodi:nodetypes="ccccccc" />
    <path
       style="fill:#282828;fill-opacity:1;stroke:none"
       d="m 23,43 0,2 -8,0 0,8 -4,0 0,-6 3,0 0,-4 z"
       id="path3849"
       inkscape:connector-curvature="0"
       sodipodi:nodetypes="ccccccccc" />
    <rect
       style="fill:#282828;fill-opacity:1;fill-rule:evenodd;stroke:none"
       id="rect3851"
       width="2"
       height="2"
       x="30"
       y="26" />
    <path
       style="fill:#282828;fill-opacity:1;stroke:none"
       d="m 19,24 11,0 0,-5 -3,0 0,-7 -2,0 0,6 -6,0 z"
       id="path3853"
       inkscape:connector-curvature="0"
       sodipodi:nodetypes="ccccccccc" />
  </g>
  <g
     inkscape:groupmode="layer"
     id="layer5"
     inkscape:label="レイヤー#1"
     style="display:none"
     sodipodi:insensitive="true">
    <rect
       style="fill:#ff0000;fill-opacity:0.19607843;fill-rule:evenodd;stroke:none"
       id="rect5019"
       width="30"
       height="90"
       x="5"
       y="5" />
    <rect
       style="fill:#ffffff;fill-opacity:1;fill-rule:evenodd;stroke:none"
       id="rect3790"
       width="60"
       height="100"
       x="40"
       y="3.8146973e-006" />
  </g>
  <g
     inkscape:groupmode="layer"
     id="layer4"
     inkscape:label="レイヤー#2"
     style="display:none">
    <rect
       style="fill:#dcc800;fill-opacity:1;fill-rule:evenodd;stroke:none"
       id="rect5014"
       width="50"
       height="50"
       x="50"
       y="0" />
    <path
       sodipodi:type="arc"
       style="fill:#c80000;fill-opacity:1;fill-rule:evenodd;stroke:none"
       id="path5016"
       sodipodi:cx="67.287544"
       sodipodi:cy="70.08149"
       sodipodi:rx="10.826543"
       sodipodi:ry="10.011642"
       d="m 78.114087,70.08149 a 10.826543,10.011642 0 1 1 -21.653086,0 10.826543,10.011642 0 1 1 21.653086,0 z"
       transform="matrix(1.3854838,0,0,1.4982557,-8.2258028,-19.999992)" />
  </g>
</svg>
