<?xml version="1.0" encoding="UTF-8" standalone="no"?>
<!-- Created with Inkscape (http://www.inkscape.org/) -->

<svg
   xmlns:dc="http://purl.org/dc/elements/1.1/"
   xmlns:cc="http://creativecommons.org/ns#"
   xmlns:rdf="http://www.w3.org/1999/02/22-rdf-syntax-ns#"
   xmlns:svg="http://www.w3.org/2000/svg"
   xmlns="http://www.w3.org/2000/svg"
   xmlns:sodipodi="http://sodipodi.sourceforge.net/DTD/sodipodi-0.dtd"
   xmlns:inkscape="http://www.inkscape.org/namespaces/inkscape"
   width="100"
   height="100"
   id="svg2"
   version="1.1"
   inkscape:version="0.48.2 r9819"
   sodipodi:docname="beam.svg"
   inkscape:export-filename="C:\Users\Lutyens\Desktop\ObjData\BoxSphere\Else\beam.png"
   inkscape:export-xdpi="460.79999"
   inkscape:export-ydpi="460.79999">
  <defs
     id="defs4">
    <filter
       inkscape:collect="always"
       id="filter3768"
       x="-0.019469388"
       width="1.0389388"
       y="-0.2385"
       height="1.477"
       color-interpolation-filters="sRGB">
      <feGaussianBlur
         inkscape:collect="always"
         stdDeviation="7.95"
         id="feGaussianBlur3770" />
    </filter>
    <filter
       inkscape:collect="always"
       id="filter3777"
       x="-0.0063749999"
       width="1.01275"
       y="-0.102"
       height="1.204"
       color-interpolation-filters="sRGB">
      <feGaussianBlur
         inkscape:collect="always"
         stdDeviation="2.55"
         id="feGaussianBlur3779" />
    </filter>
  </defs>
  <sodipodi:namedview
     id="base"
     pagecolor="#ffffff"
     bordercolor="#666666"
     borderopacity="1.0"
     inkscape:pageopacity="0.0"
     inkscape:pageshadow="2"
     inkscape:zoom="8.59"
     inkscape:cx="50"
     inkscape:cy="50"
     inkscape:document-units="px"
     inkscape:current-layer="layer1"
     showgrid="false"
     inkscape:window-width="1679"
     inkscape:window-height="1058"
     inkscape:window-x="83"
     inkscape:window-y="-8"
     inkscape:window-maximized="1" />
  <metadata
     id="metadata7">
    <rdf:RDF>
      <cc:Work
         rdf:about="">
        <dc:format>image/svg+xml</dc:format>
        <dc:type
           rdf:resource="http://purl.org/dc/dcmitype/StillImage" />
        <dc:title></dc:title>
      </cc:Work>
    </rdf:RDF>
  </metadata>
  <g
     inkscape:label="レイヤー 1"
     inkscape:groupmode="layer"
     id="layer1"
     transform="translate(0,-952.36218)">
    <path
       style="opacity:0.75;fill:#28ff96;fill-opacity:1;fill-rule:evenodd;stroke:none;filter:url(#filter3768)"
       d="M 50,10 C 27.90861,10 10,27.90861 10,50 10,72.09139 27.90861,90 50,90 l 900,0 c 22.09139,0 40,-17.90861 40,-40 0,-22.09139 -17.90861,-40 -40,-40 L 50,10 z"
       transform="matrix(0.1,0,0,1,-4.5776403e-8,952.36218)"
       id="path3755"
       inkscape:connector-curvature="0" />
    <path
       style="opacity:0.75;fill:#ffffff;fill-opacity:1;fill-rule:evenodd;stroke:none;filter:url(#filter3777)"
       d="M 50,20 C 33.431458,20 20,33.431457 20,50 20,66.568543 33.431458,80 50,80 l 900,0 c 16.56854,0 30,-13.431457 30,-30 0,-16.568543 -13.43146,-30 -30,-30 L 50,20 z"
       transform="matrix(0.1,0,0,1,-4.5776403e-8,952.36218)"
       id="path3766"
       inkscape:connector-curvature="0" />
  </g>
</svg>
