<?xml version="1.0" encoding="UTF-8" standalone="no"?>
<!-- Created with Inkscape (http://www.inkscape.org/) -->

<svg
   xmlns:dc="http://purl.org/dc/elements/1.1/"
   xmlns:cc="http://creativecommons.org/ns#"
   xmlns:rdf="http://www.w3.org/1999/02/22-rdf-syntax-ns#"
   xmlns:svg="http://www.w3.org/2000/svg"
   xmlns="http://www.w3.org/2000/svg"
   xmlns:sodipodi="http://sodipodi.sourceforge.net/DTD/sodipodi-0.dtd"
   xmlns:inkscape="http://www.inkscape.org/namespaces/inkscape"
   width="100"
   height="100"
   id="svg2"
   version="1.1"
   inkscape:version="0.48.2 r9819"
   inkscape:export-filename="C:\Users\Lutyens\Desktop\ObjData\BoxSphere\Stage\stage1\stageTex1-1.png"
   inkscape:export-xdpi="921.59998"
   inkscape:export-ydpi="921.59998"
   sodipodi:docname="stageTex1-1.svg">
  <defs
     id="defs4" />
  <sodipodi:namedview
     id="base"
     pagecolor="#ffffff"
     bordercolor="#666666"
     borderopacity="1.0"
     inkscape:pageopacity="0.0"
     inkscape:pageshadow="2"
     inkscape:zoom="8.59"
     inkscape:cx="50"
     inkscape:cy="50"
     inkscape:document-units="px"
     inkscape:current-layer="layer4"
     showgrid="false"
     inkscape:window-width="1679"
     inkscape:window-height="1058"
     inkscape:window-x="83"
     inkscape:window-y="-8"
     inkscape:window-maximized="1"
     showguides="true"
     inkscape:guide-bbox="true" />
  <metadata
     id="metadata7">
    <rdf:RDF>
      <cc:Work
         rdf:about="">
        <dc:format>image/svg+xml</dc:format>
        <dc:type
           rdf:resource="http://purl.org/dc/dcmitype/StillImage" />
        <dc:title></dc:title>
      </cc:Work>
    </rdf:RDF>
  </metadata>
  <g
     inkscape:label="レイヤー 1"
     inkscape:groupmode="layer"
     id="layer1"
     transform="translate(0,-952.36218)"
     style="display:none"
     sodipodi:insensitive="true">
    <rect
       style="fill:#282864;fill-opacity:1;fill-rule:evenodd;stroke:none"
       id="rect3753"
       width="100"
       height="100"
       x="0"
       y="952.36218" />
  </g>
  <g
     inkscape:groupmode="layer"
     id="layer2"
     inkscape:label="レイヤー"
     style="display:none"
     sodipodi:insensitive="true">
    <path
       style="fill:#282864;fill-opacity:1;fill-rule:evenodd;stroke:none"
       d="M 0,0 0,9 5.09375,9 C 5.4933769,7.0470723 7.0470723,5.4933769 9,5.09375 L 9,0 0,0 z m 11,0 0,5.09375 C 12.952928,5.4933769 14.506623,7.0470723 14.90625,9 L 29,9 29,0 11,0 z M 31,0 31,9 64.84375,9 70.5,8.0625 74.28125,4.28125 A 1.0001,1.0001 0 0 1 74.875,4 1.0001,1.0001 0 0 1 75.71875,5.71875 L 71.9375,9.5 71,15.15625 l 0,9.9375 c 1.951516,0.399338 3.472402,1.953685 3.875,3.90625 l 10.21875,0 C 85.559981,26.721584 87.583754,25 90,25 c 2.416246,0 4.440019,1.721584 4.90625,4 L 100,29 100,11 90,11 A 1.001098,1.001098 0 0 1 89.90625,9 1.0001,1.0001 0 0 1 90,9 l 10,0 0,-9 -69,0 z m 38.78125,10.21875 -2.6875,0.4375 2.25,2.25 0.4375,-2.6875 z M 0,11 0,29 5.125,29 C 5.5275983,27.047435 7.0484842,25.493088 9,25.09375 L 9,14.90625 C 7.0470723,14.506623 5.4933769,12.952928 5.09375,11 L 0,11 z m 14.90625,0 C 14.506623,12.952928 12.952928,14.506623 11,14.90625 l 0,10.1875 c 0.630413,0.129001 1.229518,0.375947 1.75,0.71875 L 14.28125,24.28125 14.59375,24 15,24 l 10,0 0.40625,0 0.3125,0.28125 L 27.25,25.8125 C 27.773982,25.464972 28.365572,25.249888 29,25.125 L 29,11 14.90625,11 z M 31,11 31,25.125 c 1.952565,0.402598 3.506912,1.923484 3.90625,3.875 L 45,29 a 1.0001,1.0001 0 1 1 0,2 L 34.90625,31 C 34.506912,32.951516 32.952565,34.472402 31,34.875 l 0,10.21875 C 32.952928,45.493377 34.506623,47.047072 34.90625,49 L 41,49 l 0,2 -6.09375,0 C 34.440019,53.278416 32.416246,55 30,55 28.979766,55 28.04097,54.712106 27.25,54.1875 L 24.1875,57.25 C 24.712106,58.04097 25,58.979766 25,60 c 0,1.020234 -0.287894,1.95903 -0.8125,2.75 L 27.25,65.8125 C 28.04097,65.287894 28.979766,65 30,65 c 2.416246,0 4.440019,1.721584 4.90625,4 L 41,69 l 0,2 -6.09375,0 C 34.506623,72.952928 32.952928,74.506623 31,74.90625 L 31,85 l 0,0.40625 -0.28125,0.3125 -5,5 L 25.40625,91 25,91 15.4375,91 11,95.4375 11,100 l 18,0 0,-5 0,-0.40625 0.28125,-0.3125 5,-5 L 34.59375,89 35,89 l 6,0 0,2 -5.5625,0 L 31,95.4375 31,100 l 69,0 0,-29 -1,0 0,-2 1,0 0,-18 -1,0 0,-2 1,0 0,-18 -5.09375,0 C 94.440019,33.278416 92.416246,35 90,35 87.583754,35 85.559981,33.278416 85.09375,31 l -10.1875,0 C 74.440019,33.278416 72.416246,35 70,35 67.583754,35 65.559981,33.278416 65.09375,31 L 55,31 A 1.001098,1.001098 0 0 1 54.90625,29 1.0001,1.0001 0 0 1 55,29 l 10.125,0 C 65.527598,27.047435 67.048484,25.493088 69,25.09375 L 69,15.4375 64.5625,11 31,11 z m -15.5625,15 -1.25,1.25 C 14.704589,28.038031 15,28.989421 15,30 c 0,1.010579 -0.295411,1.961969 -0.8125,2.75 l 1.25,1.25 9.125,0 1.25,-1.25 C 25.287894,31.95903 25,31.020234 25,30 c 0,-1.020234 0.287894,-1.95903 0.8125,-2.75 l -1.25,-1.25 -9.125,0 z M 0,31 0,49 5.09375,49 C 5.4933769,47.047072 7.0470723,45.493377 9,45.09375 L 9,34.90625 C 7.0484842,34.506912 5.5275983,32.952565 5.125,31 L 0,31 z m 12.75,3.1875 c -0.520482,0.342803 -1.119587,0.589749 -1.75,0.71875 l 0,10.1875 c 2.278416,0.466231 4,2.490004 4,4.90625 0,1.020234 -0.287894,1.95903 -0.8125,2.75 L 17.25,55.8125 C 18.04097,55.287894 18.979766,55 20,55 c 1.020234,0 1.95903,0.287894 2.75,0.8125 L 25.8125,52.75 C 25.287894,51.95903 25,51.020234 25,50 c 0,-2.416246 1.721584,-4.440019 4,-4.90625 L 29,34.875 C 28.365572,34.750112 27.773982,34.535028 27.25,34.1875 L 25.71875,35.71875 25.40625,36 25,36 15,36 14.59375,36 14.28125,35.71875 12.75,34.1875 z m 42.125,9.78125 a 1.0001,1.0001 0 0 1 0.03125,0 1.0001,1.0001 0 0 1 0.8125,0.3125 L 60,48.5625 64.28125,44.28125 A 1.0001,1.0001 0 0 1 64.875,44 1.0001,1.0001 0 0 1 65.71875,45.71875 L 61.4375,50 l 4.28125,4.28125 a 1.016466,1.016466 0 1 1 -1.4375,1.4375 L 60,51.4375 55.71875,55.71875 a 1.016466,1.016466 0 1 1 -1.4375,-1.4375 L 58.5625,50 54.28125,45.71875 A 1.0001,1.0001 0 0 1 54.78125,44 1.0001,1.0001 0 0 1 54.875,43.96875 z M 0,51 0,68.75 5.125,68.875 C 5.6386753,66.659865 7.6286274,65 10,65 c 1.020234,0 1.95903,0.287894 2.75,0.8125 L 15.8125,62.75 C 15.287894,61.95903 15,61.020234 15,60 c 0,-1.020234 0.287894,-1.95903 0.8125,-2.75 L 12.75,54.1875 C 11.95903,54.712106 11.020234,55 10,55 7.5837542,55 5.5599813,53.278416 5.09375,51 L 0,51 z M 54.84375,63.46875 A 1.50015,1.50015 0 0 1 56.0625,63.9375 L 66.21875,74.09375 C 67.309183,73.392579 68.607265,73 70,73 c 1.392735,0 2.690817,0.392579 3.78125,1.09375 L 83.9375,63.9375 a 1.50015,1.50015 0 0 1 0.875,-0.4375 1.50015,1.50015 0 0 1 1.25,2.5625 L 75.90625,76.21875 C 76.607421,77.309183 77,78.607265 77,80 c 0,1.392735 -0.392579,2.690817 -1.09375,3.78125 L 86.0625,93.9375 a 1.5026019,1.5026019 0 0 1 -2.125,2.125 L 73.78125,85.90625 C 72.690817,86.607421 71.392735,87 70,87 68.607265,87 67.309183,86.607421 66.21875,85.90625 L 56.0625,96.0625 a 1.5026019,1.5026019 0 0 1 -2.125,-2.125 L 64.09375,83.78125 C 63.392579,82.690817 63,81.392735 63,80 c 0,-1.392735 0.392579,-2.690817 1.09375,-3.78125 L 53.9375,66.0625 a 1.50015,1.50015 0 0 1 0.75,-2.5625 1.50015,1.50015 0 0 1 0.15625,-0.03125 z M 17.25,64.1875 14.1875,67.25 C 14.712106,68.04097 15,68.979766 15,70 c 0,2.416246 -1.721584,4.440019 -4,4.90625 L 11,84.5625 15.4375,89 24.5625,89 29,84.5625 29,74.90625 C 26.721584,74.440019 25,72.416246 25,70 c 0,-1.020234 0.287894,-1.95903 0.8125,-2.75 L 22.75,64.1875 C 21.95903,64.712106 21.020234,65 20,65 18.979766,65 18.04097,64.712106 17.25,64.1875 z M 0,70.75 0,100 9,100 9,74.90625 C 7.0057604,74.49817 5.4210608,72.886827 5.0625,70.875 L 0,70.75 z m 11,16.6875 0,5.125 L 13.5625,90 11,87.4375 z"
       id="rect3755"
       inkscape:connector-curvature="0"
       inkscape:export-xdpi="921.59998"
       inkscape:export-ydpi="921.59998" />
  </g>
  <g
     inkscape:groupmode="layer"
     id="layer4"
     inkscape:label="レイヤー#2">
    <path
       sodipodi:type="arc"
       style="fill:#46ffff;fill-opacity:1;fill-rule:evenodd;stroke:none"
       id="path3771"
       sodipodi:cx="8.9639111"
       sodipodi:cy="7.1012807"
       sodipodi:rx="1.7462165"
       sodipodi:ry="1.2805588"
       d="m 10.710128,7.1012807 a 1.7462165,1.2805588 0 1 1 -3.4924335,0 1.7462165,1.2805588 0 1 1 3.4924335,0 z"
       transform="matrix(2.8633333,0,0,3.9045453,-15.666665,-17.727272)" />
    <path
       transform="matrix(2.8633333,0,0,3.9045453,-15.666665,2.2727279)"
       d="m 10.710128,7.1012807 a 1.7462165,1.2805588 0 1 1 -3.4924335,0 1.7462165,1.2805588 0 1 1 3.4924335,0 z"
       sodipodi:ry="1.2805588"
       sodipodi:rx="1.7462165"
       sodipodi:cy="7.1012807"
       sodipodi:cx="8.9639111"
       id="path3773"
       style="fill:#46ffff;fill-opacity:1;fill-rule:evenodd;stroke:none"
       sodipodi:type="arc" />
    <path
       sodipodi:type="arc"
       style="fill:#46ffff;fill-opacity:1;fill-rule:evenodd;stroke:none"
       id="path3775"
       sodipodi:cx="8.9639111"
       sodipodi:cy="7.1012807"
       sodipodi:rx="1.7462165"
       sodipodi:ry="1.2805588"
       d="m 10.710128,7.1012807 a 1.7462165,1.2805588 0 1 1 -3.4924335,0 1.7462165,1.2805588 0 1 1 3.4924335,0 z"
       transform="matrix(2.8633333,0,0,3.9045453,-15.666665,22.272728)" />
    <path
       transform="matrix(2.8633333,0,0,3.9045453,-15.666665,42.272728)"
       d="m 10.710128,7.1012807 a 1.7462165,1.2805588 0 1 1 -3.4924335,0 1.7462165,1.2805588 0 1 1 3.4924335,0 z"
       sodipodi:ry="1.2805588"
       sodipodi:rx="1.7462165"
       sodipodi:cy="7.1012807"
       sodipodi:cx="8.9639111"
       id="path3777"
       style="fill:#46ffff;fill-opacity:1;fill-rule:evenodd;stroke:none"
       sodipodi:type="arc" />
    <path
       sodipodi:type="arc"
       style="fill:#46ffff;fill-opacity:1;fill-rule:evenodd;stroke:none"
       id="path3779"
       sodipodi:cx="8.9639111"
       sodipodi:cy="7.1012807"
       sodipodi:rx="1.7462165"
       sodipodi:ry="1.2805588"
       d="m 10.710128,7.1012807 a 1.7462165,1.2805588 0 1 1 -3.4924335,0 1.7462165,1.2805588 0 1 1 3.4924335,0 z"
       transform="matrix(2.8633333,0,0,3.9045453,-5.6666651,32.272728)" />
    <path
       transform="matrix(2.8633333,0,0,3.9045453,4.3333349,42.272728)"
       d="m 10.710128,7.1012807 a 1.7462165,1.2805588 0 1 1 -3.4924335,0 1.7462165,1.2805588 0 1 1 3.4924335,0 z"
       sodipodi:ry="1.2805588"
       sodipodi:rx="1.7462165"
       sodipodi:cy="7.1012807"
       sodipodi:cx="8.9639111"
       id="path3781"
       style="fill:#46ffff;fill-opacity:1;fill-rule:evenodd;stroke:none"
       sodipodi:type="arc" />
    <path
       sodipodi:type="arc"
       style="fill:#46ffff;fill-opacity:1;fill-rule:evenodd;stroke:none"
       id="path3783"
       sodipodi:cx="8.9639111"
       sodipodi:cy="7.1012807"
       sodipodi:rx="1.7462165"
       sodipodi:ry="1.2805588"
       d="m 10.710128,7.1012807 a 1.7462165,1.2805588 0 1 1 -3.4924335,0 1.7462165,1.2805588 0 1 1 3.4924335,0 z"
       transform="matrix(2.8633333,0,0,3.9045453,4.3333349,22.272728)" />
    <path
       transform="matrix(2.8633333,0,0,3.9045453,4.3333349,2.2727279)"
       d="m 10.710128,7.1012807 a 1.7462165,1.2805588 0 1 1 -3.4924335,0 1.7462165,1.2805588 0 1 1 3.4924335,0 z"
       sodipodi:ry="1.2805588"
       sodipodi:rx="1.7462165"
       sodipodi:cy="7.1012807"
       sodipodi:cx="8.9639111"
       id="path3785"
       style="fill:#46ffff;fill-opacity:1;fill-rule:evenodd;stroke:none"
       sodipodi:type="arc" />
    <path
       sodipodi:type="arc"
       style="fill:#46ffff;fill-opacity:1;fill-rule:evenodd;stroke:none"
       id="path3787"
       sodipodi:cx="8.9639111"
       sodipodi:cy="7.1012807"
       sodipodi:rx="1.7462165"
       sodipodi:ry="1.2805588"
       d="m 10.710128,7.1012807 a 1.7462165,1.2805588 0 1 1 -3.4924335,0 1.7462165,1.2805588 0 1 1 3.4924335,0 z"
       transform="matrix(2.8633333,0,0,3.9045453,44.333335,2.2727279)" />
    <path
       transform="matrix(2.8633333,0,0,3.9045453,64.333335,2.2727279)"
       d="m 10.710128,7.1012807 a 1.7462165,1.2805588 0 1 1 -3.4924335,0 1.7462165,1.2805588 0 1 1 3.4924335,0 z"
       sodipodi:ry="1.2805588"
       sodipodi:rx="1.7462165"
       sodipodi:cy="7.1012807"
       sodipodi:cx="8.9639111"
       id="path3789"
       style="fill:#46ffff;fill-opacity:1;fill-rule:evenodd;stroke:none"
       sodipodi:type="arc" />
    <path
       sodipodi:type="arc"
       style="fill:#46ffff;fill-opacity:1;fill-rule:evenodd;stroke:none"
       id="path3791"
       sodipodi:cx="8.9639111"
       sodipodi:cy="7.1012807"
       sodipodi:rx="1.7462165"
       sodipodi:ry="1.2805588"
       d="m 10.710128,7.1012807 a 1.7462165,1.2805588 0 1 1 -3.4924335,0 1.7462165,1.2805588 0 1 1 3.4924335,0 z"
       transform="matrix(4.0086667,0,0,5.4663635,34.066668,41.181818)" />
    <path
       style="fill:none;stroke:#46ffff;stroke-width:2;stroke-linecap:butt;stroke-linejoin:miter;stroke-opacity:1;stroke-miterlimit:4;stroke-dasharray:none"
       d="m -1,10 66,0 5,5 0,15"
       id="path3793"
       inkscape:connector-curvature="0"
       sodipodi:nodetypes="cccc" />
    <path
       style="fill:none;stroke:#46ffff;stroke-width:2;stroke-linecap:round;stroke-linejoin:miter;stroke-miterlimit:4;stroke-opacity:1;stroke-dasharray:none"
       d="M 101,30 55,30"
       id="path3795"
       inkscape:connector-curvature="0"
       sodipodi:nodetypes="cc" />
    <path
       style="fill:none;stroke:#46ffff;stroke-width:2;stroke-linecap:round;stroke-linejoin:miter;stroke-miterlimit:4;stroke-opacity:1;stroke-dasharray:none"
       d="M 101,10 90,10"
       id="path3797"
       inkscape:connector-curvature="0"
       sodipodi:nodetypes="cc" />
    <path
       style="fill:none;stroke:#46ffff;stroke-width:2;stroke-linecap:butt;stroke-linejoin:miter;stroke-miterlimit:4;stroke-opacity:1;stroke-dasharray:none"
       d="m 65,10 6,-1 -1,6"
       id="path3799"
       inkscape:connector-curvature="0"
       sodipodi:nodetypes="ccc" />
    <path
       style="fill:none;stroke:#46ffff;stroke-width:2;stroke-linecap:round;stroke-linejoin:miter;stroke-miterlimit:4;stroke-opacity:1;stroke-dasharray:none"
       d="M 75,5 71,9"
       id="path3801"
       inkscape:connector-curvature="0"
       sodipodi:nodetypes="cc" />
    <path
       style="fill:none;stroke:#46ffff;stroke-width:2;stroke-linecap:round;stroke-linejoin:miter;stroke-miterlimit:4;stroke-opacity:1;stroke-dasharray:none"
       d="m -1,30 11,0 5,-5 10,0 5,5 15,0"
       id="path3807"
       inkscape:connector-curvature="0"
       sodipodi:nodetypes="cccccc" />
    <path
       style="fill:none;stroke:#46ffff;stroke-width:2;stroke-linecap:butt;stroke-linejoin:miter;stroke-miterlimit:4;stroke-opacity:1;stroke-dasharray:none"
       d="m 30,30 -5,5 -10,0 -5,-5"
       id="path3809"
       inkscape:connector-curvature="0"
       sodipodi:nodetypes="cccc" />
    <path
       style="fill:none;stroke:#46ffff;stroke-width:2;stroke-linecap:butt;stroke-linejoin:miter;stroke-opacity:1;stroke-miterlimit:4;stroke-dasharray:none"
       d="m -1,50 11,0 20,20 11,0"
       id="path3811"
       inkscape:connector-curvature="0"
       sodipodi:nodetypes="cccc" />
    <path
       style="fill:none;stroke:#46ffff;stroke-width:2;stroke-linecap:butt;stroke-linejoin:miter;stroke-miterlimit:4;stroke-opacity:1;stroke-dasharray:none"
       d="M 41,50 30,50 10,70 -1,70"
       id="path3813"
       inkscape:connector-curvature="0"
       sodipodi:nodetypes="cccc" />
    <path
       style="fill:none;stroke:#46ffff;stroke-width:2;stroke-linecap:butt;stroke-linejoin:miter;stroke-miterlimit:4;stroke-opacity:1;stroke-dasharray:none"
       d="m 10,-1 0,51"
       id="path3815"
       inkscape:connector-curvature="0"
       sodipodi:nodetypes="cc" />
    <path
       style="fill:none;stroke:#46ffff;stroke-width:2;stroke-linecap:butt;stroke-linejoin:miter;stroke-opacity:1;stroke-miterlimit:4;stroke-dasharray:none"
       d="m 30,-1 0,51"
       id="path3817"
       inkscape:connector-curvature="0"
       sodipodi:nodetypes="cc" />
    <path
       style="fill:none;stroke:#46ffff;stroke-width:2;stroke-linecap:butt;stroke-linejoin:miter;stroke-opacity:1;stroke-miterlimit:4;stroke-dasharray:none"
       d="m 30,70 0,15 -5,5 -10,0"
       id="path3819"
       inkscape:connector-curvature="0"
       sodipodi:nodetypes="cccc" />
    <path
       style="fill:none;stroke:#46ffff;stroke-width:2;stroke-linecap:butt;stroke-linejoin:miter;stroke-opacity:1;stroke-miterlimit:4;stroke-dasharray:none"
       d="m 10,70 0,31"
       id="path3821"
       inkscape:connector-curvature="0"
       sodipodi:nodetypes="cc" />
    <path
       style="fill:none;stroke:#46ffff;stroke-width:2;stroke-linecap:round;stroke-linejoin:miter;stroke-miterlimit:4;stroke-opacity:1;stroke-dasharray:none"
       d="M 55,45 65,55"
       id="path3825"
       inkscape:connector-curvature="0"
       sodipodi:nodetypes="cc" />
    <path
       style="fill:none;stroke:#46ffff;stroke-width:3;stroke-linecap:round;stroke-linejoin:miter;stroke-opacity:1;stroke-miterlimit:4;stroke-dasharray:none"
       d="M 55,65 85,95"
       id="path3829"
       inkscape:connector-curvature="0"
       sodipodi:nodetypes="cc" />
    <path
       style="fill:none;stroke:#46ffff;stroke-width:3;stroke-linecap:round;stroke-linejoin:miter;stroke-opacity:1;stroke-miterlimit:4;stroke-dasharray:none"
       d="M 85,65 55,95"
       id="path3831"
       inkscape:connector-curvature="0"
       sodipodi:nodetypes="cc" />
    <path
       style="fill:none;stroke:#46ffff;stroke-width:2;stroke-linecap:butt;stroke-linejoin:miter;stroke-miterlimit:4;stroke-opacity:1;stroke-dasharray:none"
       d="m 10,85 5,5 -5,5"
       id="path3833"
       inkscape:connector-curvature="0"
       sodipodi:nodetypes="ccc" />
    <path
       style="fill:none;stroke:#46ffff;stroke-width:2;stroke-linecap:butt;stroke-linejoin:miter;stroke-miterlimit:4;stroke-opacity:1;stroke-dasharray:none"
       d="m 30,101 0,-6 5,-5 6,0"
       id="path3835"
       inkscape:connector-curvature="0"
       sodipodi:nodetypes="cccc" />
    <path
       inkscape:connector-curvature="0"
       id="path3837"
       d="M 55,55 65,45"
       style="fill:none;stroke:#46ffff;stroke-width:2;stroke-linecap:round;stroke-linejoin:miter;stroke-miterlimit:4;stroke-opacity:1;stroke-dasharray:none"
       sodipodi:nodetypes="cc" />
    <path
       style="fill:none;stroke:#46ffff;stroke-width:2;stroke-linecap:butt;stroke-linejoin:miter;stroke-miterlimit:4;stroke-opacity:1;stroke-dasharray:none"
       d="m 99,50 2,0"
       id="path3839"
       inkscape:connector-curvature="0"
       sodipodi:nodetypes="cc" />
    <path
       sodipodi:nodetypes="cc"
       inkscape:connector-curvature="0"
       id="path3841"
       d="m 99,70 2,0"
       style="fill:none;stroke:#46ffff;stroke-width:2;stroke-linecap:butt;stroke-linejoin:miter;stroke-miterlimit:4;stroke-opacity:1;stroke-dasharray:none" />
  </g>
  <g
     inkscape:groupmode="layer"
     id="layer3"
     inkscape:label="レイヤー#1"
     style="opacity:0.5;display:none"
     sodipodi:insensitive="true">
    <path
       style="fill:none;stroke:#000000;stroke-width:1px;stroke-linecap:butt;stroke-linejoin:miter;stroke-opacity:1"
       d="m 0,20 100,0"
       id="path3758"
       inkscape:connector-curvature="0"
       sodipodi:nodetypes="cc" />
    <path
       style="fill:none;stroke:#000000;stroke-width:1px;stroke-linecap:butt;stroke-linejoin:miter;stroke-opacity:1"
       d="m 0,40 100,0"
       id="path3760"
       inkscape:connector-curvature="0"
       sodipodi:nodetypes="cc" />
    <path
       style="fill:none;stroke:#000000;stroke-width:1px;stroke-linecap:butt;stroke-linejoin:miter;stroke-opacity:1"
       d="m 40,0 0,100"
       id="path3762"
       inkscape:connector-curvature="0"
       sodipodi:nodetypes="cc" />
    <path
       style="fill:none;stroke:#000000;stroke-width:1px;stroke-linecap:butt;stroke-linejoin:miter;stroke-opacity:1"
       d="m 0,80 40,0"
       id="path3764"
       inkscape:connector-curvature="0"
       sodipodi:nodetypes="cc" />
    <path
       style="fill:none;stroke:#000000;stroke-width:1px;stroke-linecap:butt;stroke-linejoin:miter;stroke-opacity:1"
       d="m 20,0 0,20"
       id="path3766"
       inkscape:connector-curvature="0"
       sodipodi:nodetypes="cc" />
    <path
       style="fill:none;stroke:#000000;stroke-width:1px;stroke-linecap:butt;stroke-linejoin:miter;stroke-opacity:1"
       d="m 20,80 0,20"
       id="path3768"
       inkscape:connector-curvature="0"
       sodipodi:nodetypes="cc" />
    <path
       style="fill:none;stroke:#000000;stroke-width:1px;stroke-linecap:butt;stroke-linejoin:miter;stroke-opacity:1"
       d="M 60,40 60,0"
       id="path3770"
       inkscape:connector-curvature="0"
       sodipodi:nodetypes="cc" />
    <path
       style="fill:none;stroke:#000000;stroke-width:1px;stroke-linecap:butt;stroke-linejoin:miter;stroke-opacity:1"
       d="M 80,40 80,0"
       id="path3772"
       inkscape:connector-curvature="0"
       sodipodi:nodetypes="cc" />
    <path
       style="fill:none;stroke:#000000;stroke-width:1px;stroke-linecap:butt;stroke-linejoin:miter;stroke-opacity:1"
       d="m 50,40 0,60"
       id="path3774"
       inkscape:connector-curvature="0"
       sodipodi:nodetypes="cc" />
    <path
       style="fill:none;stroke:#000000;stroke-width:1px;stroke-linecap:butt;stroke-linejoin:miter;stroke-opacity:1"
       d="m 90,40 0,60"
       id="path3776"
       inkscape:connector-curvature="0"
       sodipodi:nodetypes="cc" />
    <path
       style="fill:none;stroke:#000000;stroke-width:1px;stroke-linecap:butt;stroke-linejoin:miter;stroke-opacity:1"
       d="m 50,60 40,0"
       id="path3778"
       inkscape:connector-curvature="0"
       sodipodi:nodetypes="cc" />
    <path
       style="fill:none;stroke:#000000;stroke-width:1px;stroke-linecap:butt;stroke-linejoin:miter;stroke-opacity:1"
       d="M 70,60 70,40"
       id="path3780"
       inkscape:connector-curvature="0"
       sodipodi:nodetypes="cc" />
  </g>
</svg>
