<?xml version="1.0" encoding="UTF-8" standalone="no"?>
<!-- Created with Inkscape (http://www.inkscape.org/) -->

<svg
   xmlns:dc="http://purl.org/dc/elements/1.1/"
   xmlns:cc="http://creativecommons.org/ns#"
   xmlns:rdf="http://www.w3.org/1999/02/22-rdf-syntax-ns#"
   xmlns:svg="http://www.w3.org/2000/svg"
   xmlns="http://www.w3.org/2000/svg"
   xmlns:sodipodi="http://sodipodi.sourceforge.net/DTD/sodipodi-0.dtd"
   xmlns:inkscape="http://www.inkscape.org/namespaces/inkscape"
   width="100"
   height="100"
   id="svg2"
   version="1.1"
   inkscape:version="0.48.2 r9819"
   inkscape:export-filename="C:\Users\Lutyens\Desktop\ObjData\BoxSphere\Stage\stageTexNova.png"
   inkscape:export-xdpi="921.59998"
   inkscape:export-ydpi="921.59998"
   sodipodi:docname="stageTexNova.svg">
  <defs
     id="defs4" />
  <sodipodi:namedview
     id="base"
     pagecolor="#ffffff"
     bordercolor="#666666"
     borderopacity="1.0"
     inkscape:pageopacity="0.0"
     inkscape:pageshadow="2"
     inkscape:zoom="8.59"
     inkscape:cx="48.253783"
     inkscape:cy="49.241827"
     inkscape:document-units="px"
     inkscape:current-layer="layer2"
     showgrid="false"
     inkscape:window-width="1679"
     inkscape:window-height="1058"
     inkscape:window-x="83"
     inkscape:window-y="-8"
     inkscape:window-maximized="1" />
  <metadata
     id="metadata7">
    <rdf:RDF>
      <cc:Work
         rdf:about="">
        <dc:format>image/svg+xml</dc:format>
        <dc:type
           rdf:resource="http://purl.org/dc/dcmitype/StillImage" />
        <dc:title></dc:title>
      </cc:Work>
    </rdf:RDF>
  </metadata>
  <g
     inkscape:label="レイヤー 1"
     inkscape:groupmode="layer"
     id="layer1"
     transform="translate(0,-952.36218)"
     style="display:none"
     sodipodi:insensitive="true">
    <rect
       style="fill:#282864;fill-opacity:1;fill-rule:evenodd;stroke:none"
       id="rect3753"
       width="100"
       height="100"
       x="0"
       y="952.36218" />
  </g>
  <g
     inkscape:groupmode="layer"
     id="layer2"
     inkscape:label="レイヤー"
     style="opacity:0.99">
    <path
       style="fill:#282864;fill-opacity:1;fill-rule:evenodd;stroke:none"
       d="M 0 0 L 0 100 L 17.625 100 L 11.875 88.5 L 11.5 88.5 L 11.5 87.5 L 11.5 12.5 L 11.5 11.5 L 11.875 11.5 L 17.625 0 L 0 0 z M 19.875 0 L 25.625 11.5 L 26 11.5 L 26 12.5 L 26 87.5 L 26 88.5 L 25.625 88.5 L 19.875 100 L 55 100 L 55 0 L 19.875 0 z M 60 0 L 60 100 L 70 100 L 70 0 L 60 0 z M 18.75 2.25 L 14.125 11.5 L 23.375 11.5 L 18.75 2.25 z M 13.5 13.5 L 13.5 24 L 24 24 L 24 13.5 L 13.5 13.5 z M 13.5 26 L 13.5 36.5 L 24 36.5 L 24 26 L 13.5 26 z M 13.5 38.5 L 13.5 49 L 24 49 L 24 38.5 L 13.5 38.5 z M 13.5 51 L 13.5 61.5 L 24 61.5 L 24 51 L 13.5 51 z M 13.5 63.5 L 13.5 74 L 24 74 L 24 63.5 L 13.5 63.5 z M 13.5 76 L 13.5 86.5 L 24 86.5 L 24 76 L 13.5 76 z M 14.125 88.5 L 18.75 97.75 L 23.375 88.5 L 14.125 88.5 z "
       id="rect3795" />
  </g>
</svg>
