<?xml version="1.0" encoding="UTF-8" standalone="no"?>
<!-- Created with Inkscape (http://www.inkscape.org/) -->

<svg
   xmlns:dc="http://purl.org/dc/elements/1.1/"
   xmlns:cc="http://creativecommons.org/ns#"
   xmlns:rdf="http://www.w3.org/1999/02/22-rdf-syntax-ns#"
   xmlns:svg="http://www.w3.org/2000/svg"
   xmlns="http://www.w3.org/2000/svg"
   xmlns:sodipodi="http://sodipodi.sourceforge.net/DTD/sodipodi-0.dtd"
   xmlns:inkscape="http://www.inkscape.org/namespaces/inkscape"
   width="100"
   height="100"
   id="svg2"
   version="1.1"
   inkscape:version="0.48.2 r9819"
   inkscape:export-filename="C:\Users\Lutyens\Desktop\ObjData\BoxSphere\Boss\beatrice_tex.png"
   inkscape:export-xdpi="460.79999"
   inkscape:export-ydpi="460.79999"
   sodipodi:docname="beatrice.svg">
  <defs
     id="defs4" />
  <sodipodi:namedview
     id="base"
     pagecolor="#ffffff"
     bordercolor="#666666"
     borderopacity="1.0"
     inkscape:pageopacity="0.0"
     inkscape:pageshadow="2"
     inkscape:zoom="8.59"
     inkscape:cx="50"
     inkscape:cy="50"
     inkscape:document-units="px"
     inkscape:current-layer="layer5"
     showgrid="false"
     inkscape:window-width="1679"
     inkscape:window-height="1058"
     inkscape:window-x="83"
     inkscape:window-y="-8"
     inkscape:window-maximized="1"
     showguides="true"
     inkscape:guide-bbox="true" />
  <metadata
     id="metadata7">
    <rdf:RDF>
      <cc:Work
         rdf:about="">
        <dc:format>image/svg+xml</dc:format>
        <dc:type
           rdf:resource="http://purl.org/dc/dcmitype/StillImage" />
        <dc:title></dc:title>
      </cc:Work>
    </rdf:RDF>
  </metadata>
  <g
     inkscape:label="レイヤー 1"
     inkscape:groupmode="layer"
     id="layer1"
     transform="translate(0,-952.36218)"
     style="display:none"
     sodipodi:insensitive="true">
    <rect
       style="fill:#2828c8;fill-opacity:1;fill-rule:evenodd;stroke:none"
       id="rect3753"
       width="100"
       height="100"
       x="0"
       y="952.36218" />
  </g>
  <g
     inkscape:groupmode="layer"
     id="layer4"
     inkscape:label="レイヤー#2"
     style="display:none"
     sodipodi:insensitive="true">
    <path
       sodipodi:type="arc"
       style="fill:#46ffff;fill-opacity:1;fill-rule:evenodd;stroke:none"
       id="path3765"
       sodipodi:cx="5.7043076"
       sodipodi:cy="93.36438"
       sodipodi:rx="18.975554"
       sodipodi:ry="18.160652"
       d="m 24.679861,93.36438 a 18.975554,18.160652 0 1 1 -37.951107,0 18.975554,18.160652 0 1 1 37.951107,0 z"
       transform="matrix(1.3174846,0,0,1.3766025,-5.0153378,-31.025638)" />
    <rect
       style="fill:#46ffff;fill-opacity:1;fill-rule:evenodd;stroke:none"
       id="rect3767"
       width="5"
       height="100"
       x="0"
       y="-1.2266663e-015" />
    <rect
       style="fill:#46ffff;fill-opacity:1;fill-rule:evenodd;stroke:none"
       id="rect3769"
       width="70"
       height="5"
       x="0"
       y="0" />
    <rect
       style="fill:#46ffff;fill-opacity:1;fill-rule:evenodd;stroke:none"
       id="rect3771"
       width="5"
       height="5"
       x="95"
       y="0" />
    <rect
       style="fill:#46ffff;fill-opacity:1;fill-rule:evenodd;stroke:none"
       id="rect3773"
       width="37.5"
       height="5"
       x="0"
       y="95" />
    <rect
       style="fill:#46ffff;fill-opacity:1;fill-rule:evenodd;stroke:none"
       id="rect3775"
       width="3.5"
       height="37.5"
       x="34"
       y="3.4005188e-015" />
    <rect
       style="fill:#46ffff;fill-opacity:1;fill-rule:evenodd;stroke:none"
       id="rect3777"
       width="7.5"
       height="37.5"
       x="62.5"
       y="-1.3908535e-015" />
    <rect
       style="fill:#46ffff;fill-opacity:1;fill-rule:evenodd;stroke:none"
       id="rect3779"
       width="16"
       height="5"
       x="66.5"
       y="95" />
    <rect
       style="fill:#46ffff;fill-opacity:1;fill-rule:evenodd;stroke:none"
       id="rect3781"
       width="5"
       height="20"
       x="95"
       y="62.5" />
  </g>
  <g
     inkscape:groupmode="layer"
     id="layer2"
     inkscape:label="レイヤー"
     style="opacity:0.5;display:none"
     sodipodi:insensitive="true">
    <rect
       style="fill:#000000;fill-opacity:1;fill-rule:evenodd;stroke:none"
       id="rect4285"
       width="2.5"
       height="100"
       x="0"
       y="1.3727084e-015" />
    <rect
       y="1.3727084e-015"
       x="32.5"
       height="100"
       width="2.5"
       id="rect4287"
       style="fill:#000000;fill-opacity:1;fill-rule:evenodd;stroke:none" />
    <rect
       style="fill:#000000;fill-opacity:1;fill-rule:evenodd;stroke:none"
       id="rect4289"
       width="2.5"
       height="100"
       x="97.5"
       y="1.3727084e-015" />
    <rect
       style="fill:#000000;fill-opacity:1;fill-rule:evenodd;stroke:none"
       id="rect4291"
       width="2.5"
       height="100"
       x="65"
       y="1.3727084e-015" />
    <rect
       y="-100"
       x="97.5"
       height="100"
       width="2.5"
       id="rect4293"
       style="fill:#000000;fill-opacity:1;fill-rule:evenodd;stroke:none"
       transform="matrix(0,1,-1,0,0,0)" />
    <rect
       transform="matrix(0,1,-1,0,0,0)"
       style="fill:#000000;fill-opacity:1;fill-rule:evenodd;stroke:none"
       id="rect4295"
       width="2.5"
       height="100"
       x="65"
       y="-100" />
    <rect
       y="-99.900002"
       x="32.5"
       height="100"
       width="2.5"
       id="rect4297"
       style="fill:#000000;fill-opacity:1;fill-rule:evenodd;stroke:none"
       transform="matrix(0,1,-1,0,0,0)" />
    <rect
       transform="matrix(0,1,-1,0,0,0)"
       style="fill:#000000;fill-opacity:1;fill-rule:evenodd;stroke:none"
       id="rect4299"
       width="2.5"
       height="100"
       x="0"
       y="-100" />
  </g>
  <g
     inkscape:groupmode="layer"
     id="layer5"
     inkscape:label="レイヤー#3"
     style="display:inline">
    <path
       sodipodi:type="arc"
       style="fill:#0000ff;fill-opacity:1;fill-rule:evenodd;stroke:none"
       id="path3803"
       sodipodi:cx="14.202561"
       sodipodi:cy="57.857975"
       sodipodi:rx="10.360885"
       sodipodi:ry="10.244471"
       d="m 24.563446,57.857975 a 10.360885,10.244471 0 1 1 -20.7217693,0 10.360885,10.244471 0 1 1 20.7217693,0 z"
       transform="matrix(1.689045,0,0,1.7082386,-19.988765,-26.835226)" />
    <rect
       style="fill:#0000ff;fill-opacity:1;fill-rule:evenodd;stroke:none"
       id="rect3805"
       width="4"
       height="100"
       x="2"
       y="8.4199141e-015" />
    <rect
       style="fill:#0000ff;fill-opacity:1;fill-rule:evenodd;stroke:none"
       id="rect3807"
       width="15"
       height="8"
       x="15"
       y="70" />
    <rect
       style="fill:#0000ff;fill-opacity:1;fill-rule:evenodd;stroke:none"
       id="rect3809"
       width="50"
       height="4"
       x="0"
       y="2" />
    <rect
       style="fill:#0000ff;fill-opacity:1;fill-rule:evenodd;stroke:none"
       id="rect3811"
       width="4"
       height="30"
       x="26"
       y="1.6540317e-015" />
    <rect
       style="fill:#0000ff;fill-opacity:1;fill-rule:evenodd;stroke:none"
       id="rect3813"
       width="8"
       height="30"
       x="46"
       y="1.8913636e-015" />
    <rect
       style="fill:#0000ff;fill-opacity:1;fill-rule:evenodd;stroke:none"
       id="rect3815"
       width="12"
       height="4"
       x="50"
       y="70" />
    <rect
       style="fill:#0000ff;fill-opacity:1;fill-rule:evenodd;stroke:none"
       id="rect3817"
       width="4"
       height="16"
       x="70"
       y="46" />
    <rect
       style="fill:#0000ff;fill-opacity:1;fill-rule:evenodd;stroke:none"
       id="rect3819"
       width="28"
       height="4"
       x="70"
       y="2" />
    <rect
       style="fill:#0000ff;fill-opacity:1;fill-rule:evenodd;stroke:none"
       id="rect3821"
       width="4"
       height="72"
       x="74"
       y="2" />
    <rect
       style="fill:#0000ff;fill-opacity:1;fill-rule:evenodd;stroke:none"
       id="rect3823"
       width="4"
       height="32"
       x="94"
       y="22" />
    <rect
       style="fill:#0000ff;fill-opacity:1;fill-rule:evenodd;stroke:none"
       id="rect3825"
       width="4"
       height="4"
       x="94"
       y="70" />
    <rect
       style="fill:#0000ff;fill-opacity:1;fill-rule:evenodd;stroke:none"
       id="rect3827"
       width="52"
       height="4"
       x="22"
       y="94" />
    <path
       transform="matrix(1.689045,0,0,1.7082386,72.011235,-2.8352263)"
       d="m 24.563446,57.857975 a 10.360885,10.244471 0 1 1 -20.7217693,0 10.360885,10.244471 0 1 1 20.7217693,0 z"
       sodipodi:ry="10.244471"
       sodipodi:rx="10.360885"
       sodipodi:cy="57.857975"
       sodipodi:cx="14.202561"
       id="path3829"
       style="fill:#0000ff;fill-opacity:1;fill-rule:evenodd;stroke:none"
       sodipodi:type="arc" />
    <rect
       style="fill:#0000ff;fill-opacity:1;fill-rule:evenodd;stroke:none"
       id="rect3831"
       width="24"
       height="4"
       x="26"
       y="74" />
    <rect
       style="fill:#0000ff;fill-opacity:1;fill-rule:evenodd;stroke:none"
       id="rect3833"
       width="19.5"
       height="24"
       x="26"
       y="74" />
    <path
       transform="matrix(1.689045,0,0,1.7082386,-19.988765,-22.835226)"
       d="m 24.563446,57.857975 a 10.360885,10.244471 0 1 1 -20.7217693,0 10.360885,10.244471 0 1 1 20.7217693,0 z"
       sodipodi:ry="10.244471"
       sodipodi:rx="10.360885"
       sodipodi:cy="57.857975"
       sodipodi:cx="14.202561"
       id="path3837"
       style="fill:#0000ff;fill-opacity:1;fill-rule:evenodd;stroke:none"
       sodipodi:type="arc" />
    <rect
       y="74"
       x="50"
       height="24"
       width="19.5"
       id="rect3839"
       style="fill:#0000ff;fill-opacity:1;fill-rule:evenodd;stroke:none" />
  </g>
  <g
     inkscape:groupmode="layer"
     id="layer3"
     inkscape:label="レイヤー#1"
     style="opacity:0.5;display:none"
     sodipodi:insensitive="true">
    <rect
       style="fill:#000000;fill-opacity:1;fill-rule:evenodd;stroke:none"
       id="rect3774"
       width="4"
       height="100"
       x="0"
       y="9.3813846e-015" />
    <rect
       y="0"
       x="-100"
       height="100"
       width="4"
       id="rect3776"
       style="fill:#000000;fill-opacity:1;fill-rule:evenodd;stroke:none"
       transform="matrix(0,-1,1,0,0,0)" />
    <rect
       y="9.3813846e-015"
       x="24"
       height="100"
       width="4"
       id="rect3786"
       style="fill:#000000;fill-opacity:1;fill-rule:evenodd;stroke:none" />
    <rect
       style="fill:#000000;fill-opacity:1;fill-rule:evenodd;stroke:none"
       id="rect3788"
       width="4"
       height="100"
       x="48"
       y="9.3813846e-015" />
    <rect
       y="9.3813846e-015"
       x="72"
       height="100"
       width="4"
       id="rect3790"
       style="fill:#000000;fill-opacity:1;fill-rule:evenodd;stroke:none" />
    <rect
       style="fill:#000000;fill-opacity:1;fill-rule:evenodd;stroke:none"
       id="rect3792"
       width="4"
       height="100"
       x="96"
       y="9.3813846e-015" />
    <rect
       transform="matrix(0,-1,1,0,0,0)"
       style="fill:#000000;fill-opacity:1;fill-rule:evenodd;stroke:none"
       id="rect3794"
       width="4"
       height="100"
       x="-76"
       y="0" />
    <rect
       y="0"
       x="-52"
       height="100"
       width="4"
       id="rect3796"
       style="fill:#000000;fill-opacity:1;fill-rule:evenodd;stroke:none"
       transform="matrix(0,-1,1,0,0,0)" />
    <rect
       transform="matrix(0,-1,1,0,0,0)"
       style="fill:#000000;fill-opacity:1;fill-rule:evenodd;stroke:none"
       id="rect3798"
       width="4"
       height="100"
       x="-28"
       y="0" />
    <rect
       y="0"
       x="-4"
       height="100"
       width="4"
       id="rect3800"
       style="fill:#000000;fill-opacity:1;fill-rule:evenodd;stroke:none"
       transform="matrix(0,-1,1,0,0,0)" />
  </g>
</svg>
