<?xml version="1.0" encoding="UTF-8" standalone="no"?>
<!-- Created with Inkscape (http://www.inkscape.org/) -->

<svg
   xmlns:dc="http://purl.org/dc/elements/1.1/"
   xmlns:cc="http://creativecommons.org/ns#"
   xmlns:rdf="http://www.w3.org/1999/02/22-rdf-syntax-ns#"
   xmlns:svg="http://www.w3.org/2000/svg"
   xmlns="http://www.w3.org/2000/svg"
   xmlns:sodipodi="http://sodipodi.sourceforge.net/DTD/sodipodi-0.dtd"
   xmlns:inkscape="http://www.inkscape.org/namespaces/inkscape"
   width="100"
   height="100"
   id="svg2"
   version="1.1"
   inkscape:version="0.48.2 r9819"
   inkscape:export-filename="C:\Users\Lutyens\Desktop\ObjData\BoxSphere\Stage\stage1\stageTex1-1.png"
   inkscape:export-xdpi="921.59998"
   inkscape:export-ydpi="921.59998"
   sodipodi:docname="stageTex2.svg">
  <defs
     id="defs4" />
  <sodipodi:namedview
     id="base"
     pagecolor="#ffffff"
     bordercolor="#666666"
     borderopacity="1.0"
     inkscape:pageopacity="0.0"
     inkscape:pageshadow="2"
     inkscape:zoom="8.59"
     inkscape:cx="50"
     inkscape:cy="50"
     inkscape:document-units="px"
     inkscape:current-layer="layer4"
     showgrid="false"
     inkscape:window-width="1679"
     inkscape:window-height="1058"
     inkscape:window-x="83"
     inkscape:window-y="-8"
     inkscape:window-maximized="1"
     showguides="true"
     inkscape:guide-bbox="true" />
  <metadata
     id="metadata7">
    <rdf:RDF>
      <cc:Work
         rdf:about="">
        <dc:format>image/svg+xml</dc:format>
        <dc:type
           rdf:resource="http://purl.org/dc/dcmitype/StillImage" />
        <dc:title />
      </cc:Work>
    </rdf:RDF>
  </metadata>
  <g
     inkscape:label="レイヤー 1"
     inkscape:groupmode="layer"
     id="layer1"
     transform="translate(0,-952.36218)"
     style="display:none"
     sodipodi:insensitive="true">
    <rect
       style="fill:#282864;fill-opacity:1;fill-rule:evenodd;stroke:none"
       id="rect3753"
       width="100"
       height="100"
       x="0"
       y="952.36218" />
  </g>
  <g
     inkscape:groupmode="layer"
     id="layer4"
     inkscape:label="レイヤー#2">
    <path
       sodipodi:type="arc"
       style="fill:#46ffff;fill-opacity:1;fill-rule:evenodd;stroke:none"
       id="path3771"
       sodipodi:cx="8.9639111"
       sodipodi:cy="7.1012807"
       sodipodi:rx="1.7462165"
       sodipodi:ry="1.2805588"
       d="m 10.710128,7.1012807 a 1.7462165,1.2805588 0 1 1 -3.4924335,0 1.7462165,1.2805588 0 1 1 3.4924335,0 z"
       transform="matrix(2.8633333,0,0,3.9045453,-15.666665,-17.727272)" />
    <path
       transform="matrix(2.8633333,0,0,3.9045453,-15.666665,2.2727279)"
       d="m 10.710128,7.1012807 a 1.7462165,1.2805588 0 1 1 -3.4924335,0 1.7462165,1.2805588 0 1 1 3.4924335,0 z"
       sodipodi:ry="1.2805588"
       sodipodi:rx="1.7462165"
       sodipodi:cy="7.1012807"
       sodipodi:cx="8.9639111"
       id="path3773"
       style="fill:#46ffff;fill-opacity:1;fill-rule:evenodd;stroke:none"
       sodipodi:type="arc" />
    <path
       sodipodi:type="arc"
       style="fill:#46ffff;fill-opacity:1;fill-rule:evenodd;stroke:none"
       id="path3775"
       sodipodi:cx="8.9639111"
       sodipodi:cy="7.1012807"
       sodipodi:rx="1.7462165"
       sodipodi:ry="1.2805588"
       d="m 10.710128,7.1012807 a 1.7462165,1.2805588 0 1 1 -3.4924335,0 1.7462165,1.2805588 0 1 1 3.4924335,0 z"
       transform="matrix(2.8633333,0,0,3.9045453,-15.666665,22.272728)" />
    <path
       transform="matrix(2.8633333,0,0,3.9045453,-15.666665,42.272728)"
       d="m 10.710128,7.1012807 a 1.7462165,1.2805588 0 1 1 -3.4924335,0 1.7462165,1.2805588 0 1 1 3.4924335,0 z"
       sodipodi:ry="1.2805588"
       sodipodi:rx="1.7462165"
       sodipodi:cy="7.1012807"
       sodipodi:cx="8.9639111"
       id="path3777"
       style="fill:#46ffff;fill-opacity:1;fill-rule:evenodd;stroke:none"
       sodipodi:type="arc" />
    <path
       sodipodi:type="arc"
       style="fill:#46ffff;fill-opacity:1;fill-rule:evenodd;stroke:none"
       id="path3779"
       sodipodi:cx="8.9639111"
       sodipodi:cy="7.1012807"
       sodipodi:rx="1.7462165"
       sodipodi:ry="1.2805588"
       d="m 10.710128,7.1012807 a 1.7462165,1.2805588 0 1 1 -3.4924335,0 1.7462165,1.2805588 0 1 1 3.4924335,0 z"
       transform="matrix(2.8633333,0,0,3.9045453,-5.6666651,32.272728)" />
    <path
       transform="matrix(2.8633333,0,0,3.9045453,4.3333349,42.272728)"
       d="m 10.710128,7.1012807 a 1.7462165,1.2805588 0 1 1 -3.4924335,0 1.7462165,1.2805588 0 1 1 3.4924335,0 z"
       sodipodi:ry="1.2805588"
       sodipodi:rx="1.7462165"
       sodipodi:cy="7.1012807"
       sodipodi:cx="8.9639111"
       id="path3781"
       style="fill:#46ffff;fill-opacity:1;fill-rule:evenodd;stroke:none"
       sodipodi:type="arc" />
    <path
       sodipodi:type="arc"
       style="fill:#46ffff;fill-opacity:1;fill-rule:evenodd;stroke:none"
       id="path3783"
       sodipodi:cx="8.9639111"
       sodipodi:cy="7.1012807"
       sodipodi:rx="1.7462165"
       sodipodi:ry="1.2805588"
       d="m 10.710128,7.1012807 a 1.7462165,1.2805588 0 1 1 -3.4924335,0 1.7462165,1.2805588 0 1 1 3.4924335,0 z"
       transform="matrix(2.8633333,0,0,3.9045453,4.3333349,22.272728)" />
    <path
       transform="matrix(2.8633333,0,0,3.9045453,4.3333349,2.2727279)"
       d="m 10.710128,7.1012807 a 1.7462165,1.2805588 0 1 1 -3.4924335,0 1.7462165,1.2805588 0 1 1 3.4924335,0 z"
       sodipodi:ry="1.2805588"
       sodipodi:rx="1.7462165"
       sodipodi:cy="7.1012807"
       sodipodi:cx="8.9639111"
       id="path3785"
       style="fill:#46ffff;fill-opacity:1;fill-rule:evenodd;stroke:none"
       sodipodi:type="arc" />
    <path
       sodipodi:type="arc"
       style="fill:#46ffff;fill-opacity:1;fill-rule:evenodd;stroke:none"
       id="path3787"
       sodipodi:cx="8.9639111"
       sodipodi:cy="7.1012807"
       sodipodi:rx="1.7462165"
       sodipodi:ry="1.2805588"
       d="m 10.710128,7.1012807 a 1.7462165,1.2805588 0 1 1 -3.4924335,0 1.7462165,1.2805588 0 1 1 3.4924335,0 z"
       transform="matrix(2.8633333,0,0,3.9045453,44.333335,2.2727279)" />
    <path
       transform="matrix(2.8633333,0,0,3.9045453,64.333335,2.2727279)"
       d="m 10.710128,7.1012807 a 1.7462165,1.2805588 0 1 1 -3.4924335,0 1.7462165,1.2805588 0 1 1 3.4924335,0 z"
       sodipodi:ry="1.2805588"
       sodipodi:rx="1.7462165"
       sodipodi:cy="7.1012807"
       sodipodi:cx="8.9639111"
       id="path3789"
       style="fill:#46ffff;fill-opacity:1;fill-rule:evenodd;stroke:none"
       sodipodi:type="arc" />
    <path
       sodipodi:type="arc"
       style="fill:#46ffff;fill-opacity:1;fill-rule:evenodd;stroke:none"
       id="path3791"
       sodipodi:cx="8.9639111"
       sodipodi:cy="7.1012807"
       sodipodi:rx="1.7462165"
       sodipodi:ry="1.2805588"
       d="m 10.710128,7.1012807 a 1.7462165,1.2805588 0 1 1 -3.4924335,0 1.7462165,1.2805588 0 1 1 3.4924335,0 z"
       transform="matrix(4.0086667,0,0,5.4663635,34.066668,41.181818)" />
    <path
       style="fill:none;stroke:#46ffff;stroke-width:2;stroke-linecap:butt;stroke-linejoin:miter;stroke-miterlimit:4;stroke-opacity:1;stroke-dasharray:none"
       d="m -1,10 66,0 5,5 0,15"
       id="path3793"
       inkscape:connector-curvature="0"
       sodipodi:nodetypes="cccc" />
    <path
       style="fill:none;stroke:#46ffff;stroke-width:2;stroke-linecap:round;stroke-linejoin:miter;stroke-miterlimit:4;stroke-opacity:1;stroke-dasharray:none"
       d="M 101,30 55,30"
       id="path3795"
       inkscape:connector-curvature="0"
       sodipodi:nodetypes="cc" />
    <path
       style="fill:none;stroke:#46ffff;stroke-width:2;stroke-linecap:round;stroke-linejoin:miter;stroke-miterlimit:4;stroke-opacity:1;stroke-dasharray:none"
       d="M 101,10 90,10"
       id="path3797"
       inkscape:connector-curvature="0"
       sodipodi:nodetypes="cc" />
    <path
       style="fill:none;stroke:#46ffff;stroke-width:2;stroke-linecap:butt;stroke-linejoin:miter;stroke-miterlimit:4;stroke-opacity:1;stroke-dasharray:none"
       d="m 65,10 6,-1 -1,6"
       id="path3799"
       inkscape:connector-curvature="0"
       sodipodi:nodetypes="ccc" />
    <path
       style="fill:none;stroke:#46ffff;stroke-width:2;stroke-linecap:round;stroke-linejoin:miter;stroke-miterlimit:4;stroke-opacity:1;stroke-dasharray:none"
       d="M 75,5 71,9"
       id="path3801"
       inkscape:connector-curvature="0"
       sodipodi:nodetypes="cc" />
    <path
       style="fill:none;stroke:#46ffff;stroke-width:2;stroke-linecap:round;stroke-linejoin:miter;stroke-miterlimit:4;stroke-opacity:1;stroke-dasharray:none"
       d="m -1,30 11,0 5,-5 10,0 5,5 15,0"
       id="path3807"
       inkscape:connector-curvature="0"
       sodipodi:nodetypes="cccccc" />
    <path
       style="fill:none;stroke:#46ffff;stroke-width:2;stroke-linecap:butt;stroke-linejoin:miter;stroke-miterlimit:4;stroke-opacity:1;stroke-dasharray:none"
       d="m 30,30 -5,5 -10,0 -5,-5"
       id="path3809"
       inkscape:connector-curvature="0"
       sodipodi:nodetypes="cccc" />
    <path
       style="fill:none;stroke:#46ffff;stroke-width:2;stroke-linecap:butt;stroke-linejoin:miter;stroke-miterlimit:4;stroke-opacity:1;stroke-dasharray:none"
       d="m -1,50 11,0 20,20 11,0"
       id="path3811"
       inkscape:connector-curvature="0"
       sodipodi:nodetypes="cccc" />
    <path
       style="fill:none;stroke:#46ffff;stroke-width:2;stroke-linecap:butt;stroke-linejoin:miter;stroke-miterlimit:4;stroke-opacity:1;stroke-dasharray:none"
       d="M 41,50 30,50 10,70 -1,70"
       id="path3813"
       inkscape:connector-curvature="0"
       sodipodi:nodetypes="cccc" />
    <path
       style="fill:none;stroke:#46ffff;stroke-width:2;stroke-linecap:butt;stroke-linejoin:miter;stroke-miterlimit:4;stroke-opacity:1;stroke-dasharray:none"
       d="m 10,-1 0,51"
       id="path3815"
       inkscape:connector-curvature="0"
       sodipodi:nodetypes="cc" />
    <path
       style="fill:none;stroke:#46ffff;stroke-width:2;stroke-linecap:butt;stroke-linejoin:miter;stroke-miterlimit:4;stroke-opacity:1;stroke-dasharray:none"
       d="m 30,-1 0,51"
       id="path3817"
       inkscape:connector-curvature="0"
       sodipodi:nodetypes="cc" />
    <path
       style="fill:none;stroke:#46ffff;stroke-width:2;stroke-linecap:butt;stroke-linejoin:miter;stroke-miterlimit:4;stroke-opacity:1;stroke-dasharray:none"
       d="m 30,70 0,15 -5,5 -10,0"
       id="path3819"
       inkscape:connector-curvature="0"
       sodipodi:nodetypes="cccc" />
    <path
       style="fill:none;stroke:#46ffff;stroke-width:2;stroke-linecap:butt;stroke-linejoin:miter;stroke-miterlimit:4;stroke-opacity:1;stroke-dasharray:none"
       d="m 10,70 0,31"
       id="path3821"
       inkscape:connector-curvature="0"
       sodipodi:nodetypes="cc" />
    <path
       style="fill:none;stroke:#46ffff;stroke-width:2;stroke-linecap:round;stroke-linejoin:miter;stroke-miterlimit:4;stroke-opacity:1;stroke-dasharray:none"
       d="M 55,45 65,55"
       id="path3825"
       inkscape:connector-curvature="0"
       sodipodi:nodetypes="cc" />
    <path
       style="fill:none;stroke:#46ffff;stroke-width:3;stroke-linecap:round;stroke-linejoin:miter;stroke-miterlimit:4;stroke-opacity:1;stroke-dasharray:none"
       d="M 55,65 85,95"
       id="path3829"
       inkscape:connector-curvature="0"
       sodipodi:nodetypes="cc" />
    <path
       style="fill:none;stroke:#46ffff;stroke-width:3;stroke-linecap:round;stroke-linejoin:miter;stroke-miterlimit:4;stroke-opacity:1;stroke-dasharray:none"
       d="M 85,65 55,95"
       id="path3831"
       inkscape:connector-curvature="0"
       sodipodi:nodetypes="cc" />
    <path
       style="fill:none;stroke:#46ffff;stroke-width:2;stroke-linecap:butt;stroke-linejoin:miter;stroke-miterlimit:4;stroke-opacity:1;stroke-dasharray:none"
       d="m 10,85 5,5 -5,5"
       id="path3833"
       inkscape:connector-curvature="0"
       sodipodi:nodetypes="ccc" />
    <path
       style="fill:none;stroke:#46ffff;stroke-width:2;stroke-linecap:butt;stroke-linejoin:miter;stroke-miterlimit:4;stroke-opacity:1;stroke-dasharray:none"
       d="m 30,101 0,-6 5,-5 6,0"
       id="path3835"
       inkscape:connector-curvature="0"
       sodipodi:nodetypes="cccc" />
    <path
       inkscape:connector-curvature="0"
       id="path3837"
       d="M 55,55 65,45"
       style="fill:none;stroke:#46ffff;stroke-width:2;stroke-linecap:round;stroke-linejoin:miter;stroke-miterlimit:4;stroke-opacity:1;stroke-dasharray:none"
       sodipodi:nodetypes="cc" />
    <path
       style="fill:none;stroke:#46ffff;stroke-width:2;stroke-linecap:butt;stroke-linejoin:miter;stroke-miterlimit:4;stroke-opacity:1;stroke-dasharray:none"
       d="m 99,50 2,0"
       id="path3839"
       inkscape:connector-curvature="0"
       sodipodi:nodetypes="cc" />
    <path
       sodipodi:nodetypes="cc"
       inkscape:connector-curvature="0"
       id="path3841"
       d="m 99,70 2,0"
       style="fill:none;stroke:#46ffff;stroke-width:2;stroke-linecap:butt;stroke-linejoin:miter;stroke-miterlimit:4;stroke-opacity:1;stroke-dasharray:none" />
  </g>
  <g
     inkscape:groupmode="layer"
     id="layer3"
     inkscape:label="レイヤー#1"
     style="opacity:0.5;display:inline"
     sodipodi:insensitive="true">
    <path
       style="fill:none;stroke:#000000;stroke-width:1px;stroke-linecap:butt;stroke-linejoin:miter;stroke-opacity:1"
       d="m 0,20 100,0"
       id="path3758"
       inkscape:connector-curvature="0"
       sodipodi:nodetypes="cc" />
    <path
       style="fill:none;stroke:#000000;stroke-width:1px;stroke-linecap:butt;stroke-linejoin:miter;stroke-opacity:1"
       d="m 0,40 100,0"
       id="path3760"
       inkscape:connector-curvature="0"
       sodipodi:nodetypes="cc" />
    <path
       style="fill:none;stroke:#000000;stroke-width:1px;stroke-linecap:butt;stroke-linejoin:miter;stroke-opacity:1"
       d="m 40,0 0,100"
       id="path3762"
       inkscape:connector-curvature="0"
       sodipodi:nodetypes="cc" />
    <path
       style="fill:none;stroke:#000000;stroke-width:1px;stroke-linecap:butt;stroke-linejoin:miter;stroke-opacity:1"
       d="m 0,80 40,0"
       id="path3764"
       inkscape:connector-curvature="0"
       sodipodi:nodetypes="cc" />
    <path
       style="fill:none;stroke:#000000;stroke-width:1px;stroke-linecap:butt;stroke-linejoin:miter;stroke-opacity:1"
       d="m 20,0 0,100"
       id="path3768"
       inkscape:connector-curvature="0"
       sodipodi:nodetypes="cc" />
    <path
       style="fill:none;stroke:#000000;stroke-width:1px;stroke-linecap:butt;stroke-linejoin:miter;stroke-opacity:1"
       d="M 60,40 60,0"
       id="path3770"
       inkscape:connector-curvature="0"
       sodipodi:nodetypes="cc" />
    <path
       style="fill:none;stroke:#000000;stroke-width:1px;stroke-linecap:butt;stroke-linejoin:miter;stroke-opacity:1"
       d="M 80,40 80,0"
       id="path3772"
       inkscape:connector-curvature="0"
       sodipodi:nodetypes="cc" />
    <path
       style="fill:none;stroke:#000000;stroke-width:1px;stroke-linecap:butt;stroke-linejoin:miter;stroke-opacity:1"
       d="m 50,40 0,60"
       id="path3774"
       inkscape:connector-curvature="0"
       sodipodi:nodetypes="cc" />
    <path
       style="fill:none;stroke:#000000;stroke-width:1px;stroke-linecap:butt;stroke-linejoin:miter;stroke-opacity:1"
       d="m 90,40 0,60"
       id="path3776"
       inkscape:connector-curvature="0"
       sodipodi:nodetypes="cc" />
    <path
       style="fill:none;stroke:#000000;stroke-width:1px;stroke-linecap:butt;stroke-linejoin:miter;stroke-opacity:1"
       d="m 50,60 40,0"
       id="path3778"
       inkscape:connector-curvature="0"
       sodipodi:nodetypes="cc" />
    <path
       style="fill:none;stroke:#000000;stroke-width:1px;stroke-linecap:butt;stroke-linejoin:miter;stroke-opacity:1"
       d="M 70,60 70,40"
       id="path3780"
       inkscape:connector-curvature="0"
       sodipodi:nodetypes="cc" />
    <path
       sodipodi:nodetypes="cc"
       inkscape:connector-curvature="0"
       id="path3800"
       d="m 0,60 40,0"
       style="fill:none;stroke:#000000;stroke-width:1px;stroke-linecap:butt;stroke-linejoin:miter;stroke-opacity:1" />
  </g>
</svg>
